<?xml version="1.0" encoding="utf-8"?>
<!-- Generator: Adobe Illustrator 17.0.0, SVG Export Plug-In . SVG Version: 6.00 Build 0)  -->
<!DOCTYPE svg PUBLIC "-//W3C//DTD SVG 1.1//EN" "http://www.w3.org/Graphics/SVG/1.1/DTD/svg11.dtd">
<svg version="1.1" id="Laag_1" xmlns="http://www.w3.org/2000/svg" xmlns:xlink="http://www.w3.org/1999/xlink" x="0px" y="0px"
	 width="141.026px" height="376.978px" viewBox="2.372 -0.98 141.026 376.978" enable-background="new 2.372 -0.98 141.026 376.978"
	 xml:space="preserve">
<g opacity="0.6">
	<path fill="#F1F1F1" d="M2.373,226.855c0.036,0.025,0.029,0.063,0.029,0.098c0,0.361,0.001,0.723,0,1.084
		c0,0.035,0.007,0.074-0.03,0.098C2.373,227.708,2.373,227.281,2.373,226.855z"/>
	<path fill="#F1F1F1" d="M44.974,209.043c0-0.007,0-0.015,0-0.022c0.427,0,0.854,0,1.281,0c0,0.008,0,0.016,0,0.024
		C45.827,209.044,45.401,209.044,44.974,209.043z"/>
	<g>
		<path fill="#F1F1F1" d="M38.162,227.723c0.017-0.098-0.02-0.133-0.117-0.154c-0.354-0.077-0.656,0.014-0.915,0.261
			c-0.156,0.386-0.234,0.794-0.305,1.201c-0.177,1.022-0.341,2.046-0.502,3.07c-0.023,0.146-0.062,0.227-0.227,0.199
			c-0.07-0.011-0.144,0.005-0.216,0.008c-0.057-0.003-0.114-0.01-0.17-0.01c-0.437-0.001-0.873-0.003-1.31,0.001
			c-0.103,0.001-0.145-0.023-0.109-0.13c0.013-0.039,0.012-0.082,0.019-0.123c0.12-0.743,0.239-1.485,0.359-2.228
			c0.172-1.07,0.346-2.14,0.517-3.211c0.07-0.44,0.135-0.881,0.203-1.322c0.03-0.163,0.066-0.325,0.088-0.489
			c0.01-0.076,0.03-0.108,0.112-0.108c0.546,0.003,1.091,0.003,1.637,0c0.096,0,0.093,0.036,0.08,0.112
			c-0.049,0.285-0.091,0.571-0.11,0.872c0.073-0.093,0.147-0.186,0.219-0.28c0.17-0.218,0.362-0.413,0.589-0.574
			c0.318-0.226,0.67-0.258,1.041-0.207c-0.03-0.332-0.109-0.655-0.169-0.982c-0.012-0.066-0.053-0.097-0.122-0.092
			c-0.047,0.003-0.094,0-0.141,0c-3.602,0-7.203,0-10.805,0c-0.047,0-0.094-0.001-0.141,0c-0.072,0.001-0.085-0.03-0.07-0.098
			c0.131-0.589,0.285-1.171,0.475-1.744c0.021-0.065,0.056-0.095,0.123-0.092c0.047,0.002,0.094,0,0.141,0c3.237,0,6.475,0,9.712,0
			c0.042,0,0.083-0.003,0.125,0c0.111,0.008,0.136-0.034,0.099-0.139c-0.206-0.595-0.446-1.176-0.705-1.75
			c-0.044-0.098-0.114-0.103-0.202-0.103c-0.817,0.001-1.634,0.001-2.451,0.001c-1.936,0-3.872,0-5.809,0
			c-0.217,0-0.215,0.001-0.118-0.201c0.259-0.54,0.546-1.064,0.858-1.575c0.068-0.111,0.14-0.142,0.261-0.142
			c2.04,0.003,4.081,0.002,6.121,0.002c0.036,0,0.073-0.002,0.109,0c0.112,0.007,0.107-0.034,0.057-0.115
			c-0.248-0.398-0.519-0.779-0.8-1.154c-0.156-0.208-0.326-0.406-0.479-0.615c-0.064-0.087-0.135-0.11-0.237-0.11
			c-1.088,0.003-2.176,0.002-3.263,0.001c-0.055,0-0.113,0.015-0.189-0.025c0.137-0.156,0.265-0.31,0.402-0.456
			c0.417-0.444,0.846-0.874,1.304-1.277c0.044-0.039,0.11-0.07,0.091-0.149c-0.079-0.012-0.119-0.08-0.172-0.126
			c-2.248-1.978-4.821-3.342-7.724-4.079c-1.31-0.332-2.643-0.505-3.993-0.548c-0.364,0-0.729,0-1.093,0
			c-0.905,0.04-1.805,0.125-2.696,0.288c-3.552,0.652-6.655,2.208-9.295,4.669c-2.498,2.328-4.217,5.143-5.164,8.426
			c-0.379,1.313-0.597,2.655-0.678,4.019c-0.003,0.042,0.023,0.095-0.031,0.126c0,0.094,0,0.187,0,0.281
			c0.036,0.025,0.029,0.063,0.029,0.098c0,0.361,0.001,0.723,0,1.084c0,0.035,0.007,0.073-0.03,0.098c0,0.094,0,0.187,0,0.281
			c0.068,0.129,0.041,0.271,0.051,0.406c0.214,2.916,1.067,5.631,2.572,8.138c1.537,2.561,3.58,4.628,6.114,6.209
			c1.431,0.893,2.958,1.573,4.578,2.041c1.944,0.563,3.928,0.796,5.95,0.708c1.904-0.082,3.752-0.451,5.54-1.107
			c2.058-0.756,3.922-1.849,5.592-3.27c0.142-0.121,0.285-0.241,0.428-0.362c0.419-0.397,0.837-0.794,1.224-1.224
			c0.226-0.251,0.452-0.501,0.667-0.772c-0.056-0.045-0.115-0.026-0.167-0.026c-1.135-0.001-2.269-0.002-3.403,0.001
			c-0.117,0-0.199-0.024-0.278-0.123c-0.422-0.523-0.815-1.065-1.178-1.63c-0.026-0.041-0.088-0.083-0.053-0.133
			c0.018-0.025,0.086-0.017,0.132-0.017c2.04-0.001,4.08-0.002,6.12,0.002c0.157,0,0.25-0.041,0.334-0.183
			c0.313-0.529,0.608-1.066,0.876-1.619c0.084-0.172,0.084-0.173-0.106-0.173c-2.753,0-5.506-0.001-8.259,0.004
			c-0.164,0-0.245-0.045-0.311-0.201c-0.218-0.512-0.431-1.026-0.611-1.552c-0.063-0.185-0.063-0.185,0.135-0.185
			c3.263,0,6.526-0.002,9.789,0.004c0.171,0,0.241-0.051,0.29-0.213c0.15-0.497,0.282-0.998,0.417-1.499
			c-0.572-0.875-0.749-1.85-0.723-2.876C38.101,228.416,38.104,228.068,38.162,227.723z M12.272,231.627
			c-0.031,0.189-0.066,0.378-0.092,0.569c-0.01,0.071-0.037,0.097-0.109,0.095c-0.109-0.004-0.218,0.002-0.327,0.003
			c-0.528,0-1.057,0-1.592,0c0.361-2.279,0.719-4.536,1.076-6.794c-0.018-0.004-0.035-0.008-0.052-0.012
			c-0.229,0.652-0.458,1.304-0.687,1.956c-0.259,0.714-0.519,1.428-0.776,2.143c-0.3,0.832-0.603,1.664-0.891,2.5
			c-0.055,0.159-0.123,0.234-0.291,0.203c-0.03-0.005-0.062,0.002-0.093,0.003c-0.291-0.001-0.583-0.013-0.873,0
			c-0.148,0.007-0.175-0.046-0.178-0.179c-0.044-1.929-0.094-3.857-0.139-5.786c-0.008-0.32-0.001-0.64-0.001-0.96
			c-0.017,0-0.034-0.001-0.051-0.001c-0.062,0.362-0.125,0.723-0.185,1.085c-0.09,0.542-0.177,1.085-0.266,1.628
			c-0.083,0.475-0.168,0.949-0.249,1.424c-0.149,0.874-0.299,1.749-0.442,2.624c-0.02,0.122-0.056,0.185-0.192,0.163
			c-0.081-0.013-0.166,0-0.249,0.002c-0.027,0.158-0.062,0.315-0.08,0.475c0.018-0.159,0.052-0.317,0.079-0.475
			c-0.493,0-0.985,0-1.484,0c0.017-0.103,0.031-0.185,0.044-0.267c0.203-1.208,0.405-2.417,0.608-3.625
			c0.193-1.147,0.387-2.294,0.579-3.441c0.08-0.476,0.154-0.953,0.231-1.429c0.031-0.163,0.068-0.325,0.09-0.489
			c0.011-0.079,0.038-0.105,0.116-0.105c0.889,0.002,1.778,0.003,2.667-0.001c0.123-0.001,0.099,0.073,0.1,0.142
			c0.02,1.092,0.038,2.183,0.059,3.274c0.007,0.395,0.02,0.79,0.03,1.185c0,0.35,0,0.7,0,1.063c0.077-0.037,0.071-0.098,0.086-0.143
			c0.318-0.936,0.633-1.873,0.947-2.809c0.238-0.711,0.475-1.422,0.713-2.133c0.055-0.156,0.112-0.312,0.164-0.469
			c0.023-0.07,0.052-0.11,0.139-0.11c0.967,0.003,1.934,0.003,2.901,0.001c0.078,0,0.108,0.01,0.092,0.104
			c-0.234,1.387-0.463,2.775-0.693,4.162C12.758,228.677,12.516,230.152,12.272,231.627z M18.645,231.792
			c-0.034,0.165-0.015,0.341-0.099,0.496c-0.132,0-0.263,0-0.395,0c-0.39-0.002-0.78-0.008-1.169-0.005
			c-0.095,0-0.129-0.021-0.118-0.121c0.022-0.197,0.032-0.395,0.049-0.618c-0.039,0.033-0.056,0.045-0.07,0.059
			c-0.49,0.534-1.105,0.786-1.821,0.823c-0.983,0.051-1.734-0.495-1.941-1.454c-0.173-0.8-0.069-1.569,0.367-2.278
			c0.568-0.792,1.39-1.115,2.315-1.247c0.367-0.052,0.736-0.043,1.105-0.036c0.124,0.011,0.248,0.022,0.372,0.034
			c0.055,0.005,0.105,0.005,0.119-0.064c0.106-0.555,0.068-0.974-0.61-1.062c-0.644-0.083-1.284-0.036-1.921,0.081
			c-0.277,0.051-0.547,0.131-0.829,0.213c0.068-0.424,0.134-0.827,0.199-1.23c-0.018-0.396,0.219-0.532,0.566-0.62
			c0.85-0.216,1.705-0.333,2.577-0.218c0.817,0.109,1.487,0.453,1.829,1.26c0.125,0.296,0.157,0.611,0.191,0.926
			c-0.042,0.349-0.084,0.697-0.126,1.046c0.029,0.666,0.296,1.17,0.752,1.549c-0.456-0.379-0.723-0.883-0.752-1.549
			c-0.066,0.439-0.134,0.878-0.197,1.318c-0.092,0.645-0.181,1.291-0.271,1.937C18.699,231.282,18.696,231.541,18.645,231.792z
			 M24.092,226.39c-0.086-0.016-0.175-0.009-0.263-0.013c-0.17-0.016-0.339-0.039-0.509-0.046c-0.357-0.014-0.716-0.046-1.066,0.057
			c-0.296,0.087-0.428,0.268-0.422,0.568c-0.018,0.186,0.077,0.318,0.211,0.426c0.175,0.142,0.383,0.224,0.585,0.317
			c0.239,0.111,0.478,0.224,0.695,0.375c0.44,0.306,0.696,0.728,0.79,1.252c0.007,0.041,0.019,0.08,0.029,0.12
			c0.053,0.577,0.013,1.142-0.225,1.681c-0.159,0.281-0.346,0.538-0.616,0.726c-0.006,0.004-0.005,0.019-0.008,0.029
			c-0.04,0.004-0.075,0.011-0.113,0.037c-0.466,0.312-0.99,0.448-1.541,0.459c-0.501,0.01-1.003,0.026-1.505-0.022
			c-0.285-0.028-0.569-0.052-0.846-0.12c-0.292-0.071-0.295-0.077-0.26-0.369c0.03-0.246,0.073-0.49,0.11-0.736
			c0.032-0.194,0.072-0.388,0.094-0.583c0.012-0.108,0.048-0.112,0.138-0.084c0.312,0.097,0.63,0.173,0.954,0.215
			c0.459,0.06,0.919,0.094,1.376-0.023c0.367-0.112,0.527-0.314,0.506-0.645c-0.016-0.253-0.188-0.398-0.385-0.511
			c-0.337-0.193-0.687-0.363-1.02-0.561c-0.632-0.374-0.995-0.922-1.04-1.667c-0.033-0.539,0.052-1.054,0.29-1.54
			c0.484-0.797,1.244-1.104,2.125-1.19c0.728-0.071,1.451-0.005,2.173,0.095c0.123,0.017,0.144,0.062,0.125,0.182
			c-0.076,0.471-0.143,0.944-0.202,1.417C24.255,226.357,24.225,226.414,24.092,226.39z M27.887,226.538
			c-0.039-0.008-0.082,0.003-0.124,0.005c-0.212-0.002-0.424-0.002-0.636-0.008c-0.072-0.002-0.101,0.025-0.11,0.095
			c-0.024,0.184-0.054,0.368-0.081,0.552c-0.149,0.905-0.301,1.81-0.446,2.716c-0.062,0.389,0.083,0.587,0.474,0.658
			c0.228,0.042,0.454,0.011,0.677-0.044c0.131,0.048,0.01,0.142,0.038,0.209c-0.066,0.445-0.135,0.889-0.196,1.334
			c-0.013,0.095-0.048,0.147-0.143,0.169c-0.11,0.026-0.217,0.064-0.325,0.096c-0.378,0.065-0.755,0.136-1.142,0.123
			c-0.652-0.021-1.143-0.356-1.338-0.931c-0.109-0.319-0.133-0.649-0.096-0.984c0.062-0.562,0.143-1.122,0.234-1.68
			c0.182-1.116,0.365-2.232,0.549-3.347c0.075-0.455,0.154-0.909,0.232-1.364c0.033-0.162,0.066-0.324,0.1-0.486
			c0.013-0.062,0.026-0.111,0.115-0.111c0.608,0.005,1.216,0.003,1.824,0.004c0.015,0,0.03,0.007,0.05,0.012
			c-0.057,0.328-0.11,0.655-0.175,0.98c-0.025,0.126,0.006,0.162,0.134,0.156c0.239-0.01,0.478,0,0.717-0.004
			c0.079-0.001,0.107,0.012,0.094,0.104c-0.075,0.519-0.146,1.038-0.209,1.559C28.088,226.496,28.042,226.568,27.887,226.538z
			 M34.087,229.005c-0.011,0.105-0.053,0.143-0.158,0.13c-0.066-0.008-0.135,0.001-0.202,0.003
			c-1.189-0.002-2.378-0.002-3.567-0.007c-0.089,0-0.105,0.045-0.11,0.112c-0.013,0.166-0.013,0.331,0.045,0.491
			c0.098,0.44,0.396,0.695,0.801,0.833c0.567,0.194,1.146,0.163,1.723,0.048c0.428-0.085,0.843-0.215,1.245-0.381
			c0.032,0.018,0.022,0.045,0.018,0.068c-0.104,0.572-0.209,1.143-0.311,1.715c-0.014,0.077-0.05,0.119-0.121,0.141
			c-0.069,0.021-0.137,0.048-0.205,0.072c-0.894,0.216-1.796,0.294-2.704,0.116c-1.191-0.233-1.998-0.912-2.305-2.108
			c-0.303-1.183-0.163-2.338,0.29-3.463c0.108-0.269,0.271-0.51,0.392-0.772c0.132-0.16,0.259-0.325,0.396-0.48
			c1.012-1.15,2.425-1.303,3.599-0.759c0.802,0.372,1.183,1.068,1.349,1.907c0.131,0.665,0.002,1.314-0.107,1.965
			C34.134,228.76,34.1,228.882,34.087,229.005z"/>
		<path fill="#F1F1F1" d="M16.983,228.883c-0.486-0.06-0.964-0.024-1.418,0.165c-0.281,0.117-0.501,0.31-0.582,0.623l0,0
			c-0.015,0.043-0.034,0.086-0.043,0.131c-0.095,0.45,0.107,0.849,0.487,0.948c0.281,0.074,0.553,0.04,0.808-0.107
			c0.015-0.005,0.031-0.008,0.044-0.016c0.441-0.259,0.871-1.146,0.807-1.654C17.075,228.902,17.038,228.89,16.983,228.883z"/>
		<path fill="#F1F1F1" d="M31.776,226.256c-0.58-0.12-1.094,0.153-1.348,0.72c0.24-0.125,0.493-0.185,0.763-0.135
			c0.423,0.079,0.636,0.3,0.707,0.728c0.14,0.001,0.281-0.001,0.42,0.006c0.086,0.005,0.117-0.024,0.123-0.111
			c0.014-0.215,0.003-0.427-0.059-0.632C32.292,226.527,32.101,226.323,31.776,226.256z"/>
	</g>
	<path fill="#F1F1F1" d="M30.429,226.976c0.24-0.125,0.493-0.185,0.763-0.135c0.423,0.079,0.636,0.3,0.707,0.728
		c-0.513,0.002-1.027,0.001-1.54,0.007c-0.099,0.001-0.113-0.038-0.095-0.118C30.301,227.291,30.342,227.126,30.429,226.976z"/>
	<path fill="#F1F1F1" d="M54.905,226.571c-0.009,0.017-0.019,0.034-0.028,0.051C54.877,226.6,54.873,226.576,54.905,226.571z"/>
	<g opacity="0.8">
		<path fill="#F1F1F1" d="M63.543,223.3c-0.713-3.047-2.107-5.748-4.194-8.081c-2.556-2.856-5.7-4.746-9.424-5.667
			c-1.206-0.298-2.431-0.454-3.671-0.508c-0.427-0.001-0.854-0.001-1.281-0.002c-0.026,0.003-0.052,0.007-0.077,0.008
			c-1.398,0.047-2.772,0.251-4.123,0.615c-2.268,0.612-4.344,1.621-6.226,3.026c-0.462,0.345-0.917,0.699-1.328,1.106
			c0.019,0.079-0.047,0.111-0.091,0.149c-0.458,0.402-0.887,0.833-1.304,1.277c-0.137,0.146-0.265,0.3-0.402,0.456
			c0.076,0.04,0.134,0.025,0.189,0.025c1.088,0.001,2.176,0.002,3.263-0.001c0.102,0,0.173,0.023,0.237,0.11
			c0.154,0.209,0.323,0.407,0.479,0.615c0.281,0.375,0.552,0.756,0.8,1.154c0.05,0.081,0.055,0.122-0.057,0.115
			c-0.036-0.002-0.073,0-0.109,0c-2.04,0-4.081,0.001-6.121-0.002c-0.121,0-0.194,0.031-0.261,0.142
			c-0.312,0.511-0.599,1.035-0.858,1.575c-0.097,0.202-0.098,0.201,0.118,0.201c1.936,0,3.872,0,5.809,0
			c0.817,0,1.634,0.001,2.451-0.001c0.088,0,0.158,0.005,0.202,0.103c0.258,0.574,0.499,1.155,0.705,1.75
			c0.036,0.105,0.012,0.147-0.099,0.139c-0.041-0.003-0.083,0-0.125,0c-3.237,0-6.475,0-9.712,0c-0.047,0-0.094,0.002-0.141,0
			c-0.068-0.003-0.102,0.027-0.123,0.092c-0.19,0.573-0.344,1.155-0.475,1.744c-0.015,0.068-0.002,0.1,0.07,0.098
			c0.047-0.001,0.094,0,0.141,0c3.602,0,7.203,0,10.805,0c0.047,0,0.094,0.003,0.141,0c0.069-0.005,0.11,0.026,0.122,0.092
			c0.06,0.327,0.139,0.65,0.169,0.982c-0.004,0.007-0.003,0.014,0.002,0.02c-0.345,0.675-0.556,1.393-0.691,2.135
			c-0.019,0.103-0.045,0.117-0.15,0.092c-0.274-0.067-0.514,0.009-0.7,0.228c-0.185,0.217-0.304,0.467-0.375,0.742
			c0.259-0.247,0.561-0.338,0.915-0.261c0.098,0.021,0.134,0.056,0.117,0.154c-0.058,0.344-0.061,0.693-0.069,1.041
			c-0.025,1.025,0.152,2,0.723,2.876c-0.135,0.501-0.268,1.002-0.417,1.499c-0.049,0.163-0.12,0.214-0.29,0.213
			c-3.263-0.006-6.526-0.004-9.789-0.004c-0.198,0-0.198,0-0.135,0.185c0.18,0.527,0.393,1.04,0.611,1.552
			c0.066,0.155,0.148,0.201,0.311,0.201c2.753-0.005,5.506-0.004,8.259-0.004c0.19,0,0.189,0,0.106,0.173
			c-0.268,0.553-0.563,1.09-0.876,1.619c-0.084,0.142-0.177,0.184-0.334,0.183c-2.04-0.005-4.08-0.003-6.12-0.002
			c-0.046,0-0.114-0.008-0.132,0.017c-0.035,0.049,0.027,0.092,0.053,0.133c0.363,0.565,0.756,1.108,1.178,1.63
			c0.079,0.099,0.162,0.123,0.278,0.123c1.134-0.003,2.269-0.002,3.403-0.001c0.053,0,0.111-0.018,0.167,0.026
			c-0.215,0.27-0.441,0.521-0.667,0.772c-0.386,0.43-0.805,0.827-1.224,1.224c0.624,0.552,1.272,1.073,1.961,1.542
			c2.761,1.879,5.809,2.94,9.138,3.176c2.056,0.146,4.083-0.052,6.075-0.589c2.171-0.585,4.168-1.535,5.99-2.853
			c2.182-1.579,3.942-3.539,5.27-5.883c1.364-2.408,2.14-4.995,2.339-7.756C64.106,226.956,63.968,225.115,63.543,223.3z
			 M40.813,229.007c0.269,1.231,1.289,1.696,2.344,1.462c0.283-0.063,0.56-0.152,0.822-0.279c0.107-0.043,0.214-0.087,0.334-0.135
			c-0.016,0.102-0.03,0.188-0.044,0.274c-0.078,0.49-0.156,0.979-0.233,1.469c-0.005,0.014-0.016,0.029-0.016,0.043
			c0.014,0.289-0.137,0.417-0.413,0.425c-0.024,0-0.048,0.017-0.072,0.026c-0.385,0.058-0.765,0.146-1.156,0.157
			c-0.877,0.025-1.694-0.154-2.389-0.724c-0.608-0.498-0.965-1.158-1.115-1.914c-0.363-1.835-0.153-3.585,0.876-5.189
			c0.249-0.388,0.575-0.709,0.92-1.011c0.559-0.412,1.167-0.709,1.858-0.828c0.649-0.111,1.283-0.035,1.913,0.124
			c0.282,0.071,0.559,0.158,0.833,0.255c0.091,0.033,0.119,0.077,0.104,0.17c-0.097,0.615-0.191,1.231-0.284,1.847
			c-0.012,0.082-0.041,0.092-0.112,0.05c-0.093-0.055-0.193-0.1-0.289-0.149c-0.19-0.108-0.396-0.175-0.604-0.236
			c-1.08-0.317-2.06,0.021-2.657,0.915c-0.435,0.611-0.608,1.309-0.674,2.04C40.723,228.203,40.725,228.606,40.813,229.007z
			 M50.34,232.286c-0.257,0-0.513,0-0.77,0.001c-0.249-0.002-0.497-0.01-0.746-0.003c-0.117,0.003-0.136-0.034-0.121-0.143
			c0.026-0.19,0.035-0.383,0.055-0.618c-0.292,0.338-0.612,0.56-0.978,0.714c-0.061,0.022-0.122,0.043-0.183,0.065
			c-0.235,0.07-0.474,0.109-0.72,0.124c-0.931,0.056-1.697-0.458-1.927-1.321c-0.168-0.628-0.135-1.255,0.074-1.872
			c0.124-0.366,0.353-0.665,0.602-0.952c0.262-0.196,0.522-0.392,0.826-0.521c0.513-0.218,1.049-0.327,1.605-0.348
			c0.077-0.003,0.156,0.01,0.232-0.019c0.176,0.009,0.352,0.018,0.529,0.028c0.406,0.022,0.405,0.023,0.423-0.394
			c0.015-0.378-0.132-0.592-0.501-0.675c-0.56-0.126-1.125-0.077-1.688-0.012c-0.406,0.047-0.802,0.142-1.212,0.276
			c0.076-0.463,0.148-0.907,0.221-1.35c-0.009-0.293,0.169-0.391,0.425-0.465c0.792-0.228,1.596-0.335,2.418-0.286
			c0.433,0.026,0.854,0.116,1.24,0.329c0.727,0.401,1.004,1.058,1.047,1.847c0.004,0.067,0.003,0.135,0.004,0.203
			c-0.063,0.431-0.128,0.861-0.189,1.292c-0.189,1.331-0.378,2.661-0.564,3.992C50.43,232.245,50.413,232.287,50.34,232.286z
			 M54.143,226.957c-0.344,0.282-0.5,0.671-0.578,1.097c-0.132,0.258-0.163,0.543-0.219,0.82c-0.213,1.052-0.344,2.119-0.53,3.176
			c-0.043,0.244-0.037,0.245-0.29,0.246c-0.062,0-0.124,0.008-0.185,0.011c-0.458-0.003-0.916-0.006-1.373-0.009
			c-0.212-0.001-0.212,0-0.176-0.208c0.003-0.015,0.008-0.03,0.011-0.045c0.119-0.738,0.238-1.477,0.356-2.215
			c0.173-1.072,0.346-2.143,0.517-3.215c0.07-0.441,0.136-0.883,0.204-1.324c0.03-0.163,0.067-0.324,0.087-0.488
			c0.011-0.09,0.047-0.11,0.129-0.11c0.535,0.003,1.07,0.003,1.605,0c0.092,0,0.11,0.021,0.093,0.115
			c-0.054,0.299-0.096,0.601-0.149,0.949c0.155-0.206,0.267-0.385,0.41-0.541c0.163-0.177,0.339-0.334,0.546-0.459
			c0.268-0.163,0.558-0.177,0.857-0.151c0.134,0.012,0.049,0.089,0.03,0.128c-0.203,0.411-0.362,0.837-0.473,1.281
			c-0.046,0.184-0.119,0.363-0.111,0.558l0.002-0.002c-0.009,0.017-0.019,0.034-0.028,0.051c-0.01,0.04-0.029,0.08-0.029,0.12
			c0,0.129-0.049,0.15-0.172,0.116C54.488,226.807,54.295,226.832,54.143,226.957z M61.566,231.721
			c-0.002,0.161,0.065,0.31,0.173,0.419C61.631,232.03,61.564,231.881,61.566,231.721z M61.858,225.098
			c-0.183,1.138-0.366,2.277-0.549,3.415c-0.182,1.133-0.363,2.267-0.548,3.399c-0.02,0.121,0.011,0.284-0.084,0.348
			c-0.084,0.056-0.231,0.019-0.35,0.023c-0.015,0.001-0.031,0.004-0.046,0.006c-0.437-0.002-0.874-0.012-1.31-0.001
			c-0.159,0.004-0.179-0.055-0.158-0.185c0.025-0.158,0.041-0.318,0.061-0.477c-0.014-0.007-0.028-0.013-0.042-0.02
			c-0.013,0.022-0.023,0.049-0.041,0.066c-0.579,0.566-1.274,0.814-2.074,0.703c-0.822-0.114-1.365-0.619-1.712-1.344
			c-0.464-0.969-0.464-1.988-0.27-3.018c0.163-0.865,0.514-1.649,1.059-2.343c0.347-0.385,0.727-0.73,1.214-0.929
			c0.841-0.345,1.614-0.208,2.323,0.348c0.032,0.025,0.066,0.049,0.099,0.073c0.133,0.114,0.267,0.229,0.395,0.338
			c0.101-0.632,0.208-1.304,0.315-1.977c0.025-0.148,0.059-0.296,0.073-0.445c0.01-0.11,0.058-0.134,0.159-0.134
			c0.562,0.004,1.124,0.007,1.686-0.001c0.135-0.002,0.14,0.052,0.123,0.155C62.072,223.765,61.965,224.431,61.858,225.098z"/>
		<path fill="#F1F1F1" d="M58.537,226.474c-0.567-0.133-1.148,0.172-1.424,0.751c-0.027,0.044-0.058,0.085-0.08,0.131
			c-0.194,0.404-0.289,0.833-0.313,1.277c-0.023,0.411-0.028,0.822,0.125,1.216c0.259,0.668,1.033,0.865,1.588,0.405
			c0.145-0.079,0.248-0.204,0.34-0.335c0.403-0.573,0.551-1.222,0.548-1.913c-0.002-0.339-0.029-0.675-0.165-0.992
			C59.035,226.737,58.841,226.545,58.537,226.474z"/>
		<path fill="#F1F1F1" d="M48.803,228.88c-0.455-0.054-0.902-0.016-1.333,0.14c-0.248,0.09-0.461,0.237-0.579,0.489l0,0
			c-0.022,0.041-0.049,0.08-0.065,0.123c-0.24,0.643,0.127,1.195,0.761,1.148c0.311-0.01,0.575-0.129,0.784-0.357
			c0.367-0.401,0.514-0.889,0.549-1.42C48.926,228.913,48.884,228.889,48.803,228.88z"/>
	</g>
</g>
<g opacity="0.6">
	<path fill="#F1F1F1" d="M2.372,195.233c0-12.071,0-24.141,0-36.212c7.548,0,15.096,0,22.644,0c0.102,0.064,0.212,0.024,0.32,0.024
		c0.445,0.01,0.888,0.034,1.332,0.066c0.553,0.039,1.103,0.094,1.653,0.158c0.638,0.074,1.272,0.173,1.901,0.295
		c1.105,0.214,2.193,0.497,3.255,0.873c1.93,0.683,3.71,1.634,5.278,2.964c0.991,0.841,1.853,1.799,2.585,2.873
		c0.988,1.45,1.692,3.031,2.172,4.715c0.327,1.148,0.546,2.317,0.668,3.504c0.066,0.635,0.118,1.271,0.119,1.91
		c0.002,1.025,0.013,2.051-0.09,3.073c-0.081,0.807-0.189,1.609-0.352,2.403c-0.28,1.365-0.696,2.686-1.288,3.95
		c-0.663,1.417-1.52,2.704-2.593,3.844c-1.356,1.441-2.951,2.551-4.738,3.393c-1.172,0.552-2.389,0.974-3.643,1.297
		c-0.838,0.216-1.686,0.385-2.541,0.516c-0.448,0.069-0.899,0.123-1.351,0.17c-0.431,0.045-0.863,0.084-1.296,0.112
		c-0.506,0.033-1.013,0.047-1.52,0.069c-0.298,0.001-0.596,0.002-0.894,0.002C16.788,195.233,9.58,195.233,2.372,195.233z
		 M4.1,177.127c0,5.402,0,10.804,0,16.205c0,0.234-0.032,0.199,0.197,0.2c6.04,0.001,12.081,0.001,18.121,0
		c1.329,0,2.658,0.009,3.986-0.084c0.417-0.029,0.834-0.062,1.25-0.107c0.565-0.062,1.128-0.142,1.689-0.238
		c0.951-0.164,1.889-0.38,2.81-0.666c1.557-0.483,3.03-1.145,4.381-2.066c1.817-1.238,3.234-2.831,4.245-4.784
		c0.843-1.627,1.334-3.363,1.599-5.168c0.117-0.792,0.184-1.59,0.211-2.39c0.052-1.525-0.017-3.044-0.263-4.552
		c-0.219-1.341-0.574-2.642-1.112-3.89c-0.551-1.276-1.275-2.445-2.194-3.49c-1.165-1.324-2.552-2.358-4.121-3.156
		c-1.548-0.788-3.187-1.307-4.883-1.657c-0.895-0.185-1.799-0.312-2.707-0.404c-0.603-0.061-1.209-0.101-1.815-0.125
		c-0.544-0.021-1.088-0.031-1.632-0.031c-6.522-0.002-13.044-0.001-19.566-0.001c-0.229,0-0.197-0.035-0.197,0.199
		C4.1,166.324,4.1,171.725,4.1,177.127z"/>
	<path fill="#F1F1F1" d="M24.889,195.231c0.001,0.011,0.001,0.022,0.002,0.033c-7.459,0-14.918,0-22.377-0.002
		c-0.046,0-0.106,0.036-0.141-0.029c7.208,0,14.416,0,21.623,0C24.293,195.233,24.591,195.232,24.889,195.231z"/>
	<path fill="#F1F1F1" d="M25.33,159.021c0.008,0.007,0.01,0.014,0.005,0.024c-0.107,0-0.217,0.04-0.32-0.024
		C25.121,159.021,25.226,159.021,25.33,159.021z"/>
	<path fill="#F1F1F1" d="M16.358,184.16c0-2.167,0-4.334,0-6.501c0-0.226,0-0.195,0.194-0.196c0.413-0.003,0.828,0.009,1.24-0.01
		c0.623-0.03,1.205-0.204,1.718-0.57c0.549-0.392,0.897-0.928,1.107-1.561c0.223-0.672,0.265-1.364,0.21-2.063
		c-0.036-0.456-0.137-0.899-0.325-1.319c-0.434-0.969-1.176-1.552-2.212-1.767c-0.283-0.059-0.57-0.073-0.859-0.073
		c-0.314,0-0.628,0.001-0.942-0.001c-0.129-0.001-0.131-0.003-0.131-0.133c-0.001-0.366,0-0.733,0-1.099c0-1.759,0-3.518,0-5.276
		c0-0.222-0.003-0.196,0.194-0.196c2.549,0,5.098-0.002,7.647,0.003c0.874,0.002,1.747,0.038,2.618,0.118
		c1.472,0.135,2.924,0.381,4.339,0.814c1.18,0.362,2.307,0.843,3.356,1.5c1.876,1.175,3.272,2.768,4.177,4.79
		c0.436,0.974,0.735,1.989,0.934,3.035c0.112,0.586,0.187,1.177,0.241,1.771c0.023,0.256,0.025,0.209-0.195,0.21
		c-0.775,0.002-1.549,0.001-2.324,0.001c-0.021,0-0.042,0-0.063,0c-0.134-0.002-0.136-0.002-0.136-0.141
		c-0.001-0.654,0-1.309,0-1.963c0-1.078,0-2.157,0-3.235c0-0.042-0.002-0.084,0-0.126c0.002-0.061-0.027-0.086-0.086-0.083
		c-0.021,0.001-0.042,0-0.063,0c-0.508,0-1.015,0-1.523,0c-0.154,0-0.155,0.001-0.155,0.155c0,1.445,0,2.889,0,4.334
		c0,0.885,0,1.769,0,2.654c0,0.031,0,0.063,0,0.094c0.002,0.135,0.002,0.136,0.14,0.137c0.848,0.001,1.696,0,2.544,0
		c0.591,0,1.183,0,1.774,0c0.156,0,0.159,0.001,0.154,0.153c-0.02,0.591-0.053,1.181-0.117,1.769
		c-0.085,0.786-0.218,1.563-0.414,2.329c-0.253,0.987-0.607,1.935-1.092,2.832c-0.808,1.492-1.916,2.711-3.319,3.664
		c-1.166,0.792-2.442,1.347-3.788,1.747c-0.979,0.291-1.977,0.495-2.989,0.634c-0.783,0.108-1.569,0.181-2.358,0.222
		c-0.722,0.038-1.443,0.052-2.166,0.052c-2.376-0.001-4.753,0-7.129-0.001c-0.209,0-0.202,0.031-0.202-0.204
		C16.358,188.494,16.358,186.327,16.358,184.16z M26.3,171.918c-0.001-0.56-0.001-1.12-0.003-1.68c0-0.138-0.002-0.14-0.138-0.14
		c-0.408-0.001-0.817,0-1.225,0c-0.963,0-1.926,0-2.889,0c-0.138,0-0.138,0.002-0.14,0.136c0,0.031,0,0.063,0,0.094
		c0,1.34,0,2.68,0,4.02c0,0.989,0,1.979,0,2.968c0,0.144,0.001,0.146,0.129,0.146c1.424,0.001,2.848,0.001,4.271,0
		c0.131,0,0.132-0.002,0.132-0.144c0.001-0.403,0-0.806,0-1.209c0-0.126-0.003-0.251,0.001-0.377
		c0.003-0.077-0.029-0.102-0.102-0.098c-0.078,0.004-0.157,0.001-0.235,0.001c-0.743,0-1.487,0-2.23,0
		c-0.138,0-0.139-0.002-0.14-0.136c-0.001-0.256,0.002-0.513-0.002-0.769c-0.001-0.08,0.024-0.117,0.107-0.11
		c0.036,0.003,0.073,0,0.11,0c0.686,0,1.371,0,2.057,0c0.147,0,0.148-0.001,0.148-0.144c0.001-0.513,0-1.026,0-1.539
		c0-0.026-0.001-0.052-0.001-0.079c0.001-0.053-0.026-0.075-0.078-0.073c-0.037,0.001-0.073,0-0.11,0c-0.68,0-1.361,0-2.041,0
		c-0.037,0-0.073-0.002-0.11,0c-0.061,0.003-0.083-0.026-0.082-0.085c0.004-0.246,0.005-0.492,0.007-0.737
		c0.13,0,0.261-0.001,0.391-0.001c0.667,0,1.334,0.001,2.001-0.002C26.188,171.959,26.259,171.99,26.3,171.918z M29.657,176.073
		c0.763,0.001,1.526,0.002,2.289,0.002c0.036,0,0.074,0.005,0.104-0.023c0.037,0.014,0.032,0.05,0.04,0.079
		c0.116,0.396,0.232,0.792,0.348,1.188c0.043,0.145,0.043,0.146,0.188,0.146c0.534,0,1.067,0,1.601,0
		c0.046,0,0.094,0.01,0.139-0.016c0.014-0.06-0.018-0.112-0.034-0.165c-0.706-2.347-1.414-4.694-2.122-7.041
		c-0.046-0.153-0.046-0.154-0.2-0.154c-0.769,0-1.538,0-2.307,0c-0.021,0-0.042,0.001-0.063,0c-0.063-0.005-0.098,0.023-0.109,0.085
		c-0.006,0.031-0.018,0.06-0.027,0.09c-0.706,2.341-1.412,4.681-2.118,7.022c-0.016,0.053-0.044,0.105-0.035,0.164
		c0.053,0.027,0.106,0.015,0.157,0.016c0.277,0.001,0.555,0.001,0.832,0.001c0.256,0,0.513,0.001,0.769,0
		c0.127,0,0.127-0.002,0.162-0.117c0.027-0.09,0.051-0.181,0.079-0.271C29.457,176.743,29.537,176.401,29.657,176.073z"/>
	<path fill="#F1F1F1" d="M13.155,179.498c0,0.077,0,0.134,0,0.191c0,3.659,0,7.317,0,10.976c0,0.236,0.022,0.198-0.2,0.198
		c-1.999,0.001-3.999,0.001-5.998,0c-0.212,0-0.187,0.028-0.187-0.18c0-3.669,0-7.338,0-11.007c0-0.031,0.003-0.063-0.001-0.094
		c-0.009-0.072,0.027-0.092,0.091-0.085c0.021,0.002,0.042,0,0.063,0c2.031,0,4.062,0,6.092,0
		C13.056,179.498,13.097,179.498,13.155,179.498z"/>
	<path fill="#F1F1F1" d="M9.962,177.741c-2.081,0.02-3.966-1.665-3.969-3.965c-0.002-2.173,1.727-3.968,3.968-3.967
		c2.304,0.001,3.971,1.872,3.969,3.967C13.928,175.999,12.109,177.757,9.962,177.741z"/>
	<path fill="#F1F1F1" d="M16.357,173.766c0-0.549,0-1.099,0-1.648c0-0.042,0.001-0.084,0.001-0.126c0-0.045,0.023-0.066,0.068-0.065
		c0.491,0.013,0.984-0.038,1.473,0.031c0.471,0.066,0.791,0.331,0.962,0.775c0.081,0.211,0.123,0.432,0.141,0.657
		c0.036,0.446,0.022,0.888-0.104,1.321c-0.019,0.065-0.042,0.129-0.068,0.192c-0.168,0.401-0.473,0.628-0.897,0.698
		c-0.113,0.019-0.227,0.033-0.343,0.033c-0.366-0.001-0.733,0.001-1.099,0c-0.133,0-0.135-0.002-0.135-0.142
		C16.356,174.917,16.357,174.342,16.357,173.766z"/>
	<path fill="#F1F1F1" d="M23.739,171.962c0.038-0.067,0.103-0.033,0.153-0.033c0.74-0.003,1.481-0.002,2.221-0.002
		c0.062,0,0.125-0.005,0.187-0.008c-0.042,0.073-0.112,0.041-0.169,0.041c-0.667,0.002-1.334,0.001-2.001,0.002
		C24,171.961,23.87,171.961,23.739,171.962z"/>
	<path fill="#F1F1F1" d="M29.657,176.073c0.017-0.036,0.051-0.031,0.081-0.031c0.755,0,1.511,0,2.266,0.001
		c0.015,0,0.03,0.006,0.046,0.009c-0.03,0.028-0.068,0.023-0.104,0.023C31.183,176.074,30.42,176.074,29.657,176.073z"/>
	<path fill="#F1F1F1" d="M30.194,174.2c0.097-0.333,0.19-0.648,0.282-0.963c0.095-0.326,0.191-0.652,0.287-0.978
		c0.01-0.035,0.017-0.072,0.034-0.104c0.029-0.056,0.104-0.053,0.135,0.004c0.01,0.018,0.014,0.039,0.02,0.059
		c0.181,0.622,0.362,1.244,0.542,1.866c0.036,0.123,0.034,0.127-0.087,0.127c-0.377,0.001-0.753,0.001-1.13,0
		C30.256,174.212,30.236,174.206,30.194,174.2z"/>
</g>
<g opacity="0.6">
	<path fill="#F1F1F1" d="M11.102,91.842c-0.458,0-0.917,0.011-1.375-0.002c-1.203-0.034-1.26-0.006-1.568,1.132
		c-0.373,1.378-0.753,2.754-1.082,4.143C6.925,97.756,6.587,98.017,5.943,98c-0.863-0.023-1.727,0.001-2.59-0.004
		c-0.922-0.006-1.109-0.224-0.907-1.125c0.568-2.523,1.149-5.043,1.731-7.562c0.685-2.965,1.376-5.929,2.065-8.894
		c0.298-1.285,0.421-1.394,1.73-1.393c2.563,0.002,5.127,0.005,7.69,0.026c3.829,0.032,5.944,2.631,5.243,6.422
		c-0.641,3.468-2.904,5.566-6.66,6.192C13.203,91.835,12.155,91.885,11.102,91.842z M11.204,88.253
		c1.305-0.033,2.581-0.191,3.676-0.99c0.922-0.673,1.231-1.607,1.045-2.703c-0.173-1.021-0.863-1.562-1.809-1.847
		c-0.838-0.252-1.693-0.298-2.557-0.244c-0.6,0.037-1,0.313-1.138,0.942c-0.259,1.18-0.572,2.349-0.818,3.532
		c-0.208,1.004,0.018,1.261,1.035,1.309C10.827,88.261,11.016,88.253,11.204,88.253z"/>
	<path fill="#F1F1F1" d="M60.177,91.844c-0.432,0-0.864,0.012-1.295-0.002c-1.271-0.042-1.308-0.03-1.654,1.24
		c-0.368,1.353-0.732,2.708-1.06,4.071c-0.146,0.606-0.48,0.855-1.086,0.844c-0.864-0.016-1.728,0.004-2.592-0.003
		c-0.966-0.007-1.152-0.232-0.938-1.17c0.732-3.208,1.472-6.413,2.213-9.619c0.522-2.26,1.05-4.518,1.575-6.777
		c0.302-1.297,0.423-1.406,1.724-1.406c2.538,0.001,5.076,0.009,7.614,0.024c3.901,0.023,6.02,2.589,5.32,6.432
		c-0.63,3.459-2.9,5.556-6.676,6.187C62.279,91.838,61.23,91.886,60.177,91.844z M60.469,88.261
		c1.118-0.038,2.339-0.199,3.407-0.922c0.968-0.656,1.333-1.587,1.157-2.729c-0.164-1.063-0.868-1.617-1.845-1.906
		c-0.838-0.248-1.694-0.288-2.557-0.229c-0.565,0.038-0.958,0.302-1.096,0.89c-0.263,1.125-0.569,2.24-0.802,3.371
		c-0.263,1.279-0.048,1.509,1.281,1.525C60.121,88.262,60.229,88.261,60.469,88.261z"/>
	<path fill="#F1F1F1" d="M38.299,104.363c-0.486,0-0.972,0.011-1.457-0.003c-0.857-0.025-1.011-0.286-0.563-1.044
		c0.507-0.858,0.985-1.752,1.614-2.516c1.126-1.368,1.238-2.772,0.859-4.488c-0.844-3.814-1.456-7.68-2.155-11.526
		c-0.182-1,0.113-1.354,1.123-1.377c0.729-0.016,1.458-0.011,2.186-0.028c0.823-0.02,1.219,0.395,1.344,1.19
		c0.355,2.264,0.737,4.524,1.111,6.786c0.031,0.186,0.072,0.37,0.112,0.555c0.045,0.205,0.038,0.478,0.304,0.51
		c0.268,0.032,0.313-0.254,0.421-0.427c1.61-2.586,3.234-5.164,4.812-7.769c0.369-0.61,0.819-0.866,1.509-0.845
		c0.89,0.028,1.782-0.006,2.672,0.014c0.894,0.02,1.021,0.243,0.552,1.024c-2.734,4.552-5.471,9.102-8.224,13.643
		c-1.02,1.683-2.118,3.319-3.113,5.016c-0.575,0.981-1.24,1.606-2.46,1.298c-0.203-0.051-0.43-0.007-0.646-0.007
		C38.299,104.367,38.299,104.365,38.299,104.363z"/>
	<path fill="#F1F1F1" d="M28.744,96.543c-0.726,0.402-1.381,0.757-2.028,1.126c-1.466,0.837-3.044,0.912-4.634,0.575
		c-2.129-0.451-3.048-2.268-2.499-4.757c0.475-2.155,2.098-3.488,4.792-3.94c1.607-0.269,3.235-0.106,4.849-0.243
		c1.006-0.085,1.242-0.313,1.282-1.248c0.035-0.827-0.323-1.305-1.197-1.44c-1.928-0.298-3.822-0.042-5.673,0.51
		c-0.877,0.261-1.09,0.154-1.04-0.756c0.026-0.483,0.104-0.965,0.185-1.444c0.104-0.621,0.453-1.012,1.098-1.128
		c2.377-0.426,4.761-0.631,7.165-0.243c1.161,0.187,2.137,0.73,2.943,1.574c0.806,0.843,1.08,1.871,0.854,2.993
		c-0.602,2.986-1.248,5.963-1.862,8.947c-0.132,0.64-0.517,0.914-1.133,0.926c-0.756,0.014-1.516-0.027-2.266,0.042
		c-0.746,0.069-0.983-0.21-0.839-0.913C28.771,96.975,28.744,96.812,28.744,96.543z M28.042,91.385c0.053,0-0.138-0.017-0.324,0.003
		c-1.044,0.108-2.103,0.162-3.027,0.755c-0.69,0.443-0.919,1.087-0.838,1.879c0.062,0.612,0.323,1.083,0.902,1.332
		c2.009,0.863,4.354-0.321,4.768-2.454C29.791,91.516,29.925,91.232,28.042,91.385z"/>
	<path fill="#F1F1F1" d="M77.718,96.534c-0.89,0.472-1.647,0.877-2.407,1.276c-1.495,0.785-3.057,0.8-4.635,0.335
		c-1.189-0.351-1.898-1.178-2.149-2.397c-0.513-2.494,0.681-4.744,3.037-5.695c1.192-0.481,2.44-0.652,3.72-0.666
		c0.998-0.011,1.996-0.104,2.992-0.08c0.844,0.02,1.153-0.399,1.204-1.155c0.059-0.869-0.269-1.347-1.091-1.525
		c-1.319-0.285-2.634-0.089-3.943,0.08c-0.692,0.09-1.379,0.215-2.035,0.497c-0.52,0.224-0.851,0.008-0.845-0.578
		c0.007-0.676,0.104-1.345,0.289-1.995c0.129-0.455,0.454-0.715,0.92-0.804c2.453-0.47,4.922-0.706,7.394-0.237
		c2.788,0.528,4.073,2.445,3.529,5.231c-0.522,2.671-1.102,5.331-1.67,7.992c-0.215,1.004-0.432,1.166-1.498,1.196
		c-0.647,0.018-1.298-0.025-1.941,0.029c-0.694,0.058-1.037-0.137-0.876-0.89C77.746,96.996,77.718,96.833,77.718,96.534z
		 M77.532,91.335c-0.59,0.054-1.182,0.095-1.77,0.167c-0.755,0.093-1.484,0.277-2.111,0.74c-0.668,0.494-0.793,1.18-0.674,1.948
		c0.09,0.583,0.39,1.052,0.965,1.178c1.978,0.434,4.339,0.12,4.737-2.713C78.86,91.369,78.842,91.318,77.532,91.335z"/>
	<path fill="#F1F1F1" d="M86.676,97.957c-0.297,0-0.594,0.003-0.891-0.001c-1.342-0.016-1.374-0.023-1.131-1.307
		c1.052-5.564,2.384-11.068,3.651-16.585c0.151-0.656,0.525-0.951,1.207-0.923c0.835,0.034,1.673,0.009,2.509,0.026
		c0.826,0.017,1.091,0.322,0.907,1.104c-1.348,5.72-2.712,11.435-4.056,17.156c-0.103,0.437-0.336,0.566-0.741,0.555
		c-0.485-0.014-0.971-0.003-1.457-0.003C86.676,97.972,86.676,97.965,86.676,97.957z"/>
	<path fill="#F1F1F1" d="M96.174,80.258c-0.021,0.321-0.043,0.643-0.064,0.964c-0.01,0.153-0.081,0.261-0.244,0.25
		c-0.192-0.013-0.172-0.165-0.162-0.298c0.042-0.563,0.088-1.126,0.129-1.689c0.012-0.162,0-0.33,0.229-0.353
		c0.191-0.019,0.311,0.07,0.372,0.238c0.151,0.418,0.294,0.839,0.487,1.391c0.187-0.496,0.327-0.866,0.467-1.237
		c0.075-0.197,0.113-0.437,0.414-0.389c0.317,0.051,0.239,0.318,0.254,0.511c0.04,0.509,0.055,1.02,0.083,1.531
		c0.008,0.139,0.017,0.284-0.164,0.303c-0.184,0.019-0.193-0.123-0.215-0.262c-0.048-0.303,0.071-0.639-0.192-0.949
		c-0.063,0.116-0.104,0.209-0.16,0.293c-0.196,0.294-0.084,0.904-0.524,0.877c-0.396-0.024-0.306-0.612-0.472-0.931
		c-0.046-0.089-0.081-0.184-0.121-0.277C96.252,80.24,96.213,80.249,96.174,80.258z"/>
	<path fill="#F1F1F1" d="M93.617,79.321c0.684-0.24,1.271-0.218,1.923-0.079c-0.903,0.075-0.78,0.691-0.762,1.251
		c0.007,0.214,0.005,0.429,0.001,0.643c-0.003,0.16-0.006,0.343-0.235,0.326c-0.186-0.014-0.16-0.18-0.162-0.306
		c-0.005-0.321-0.015-0.644,0.002-0.964C94.407,79.703,94.466,79.205,93.617,79.321z"/>
</g>
<g opacity="0.6">
	<path fill="#F1F1F1" d="M57.584,56.404c-0.723,0.014-1.45-0.018-2.168,0.052c-1.316,0.128-2.345-0.015-2.297-1.724
		c0.017-0.62-0.412-0.855-1.044-0.822c-0.876,0.045-1.763,0.082-2.633-0.003c-1.455-0.142-2.662-0.029-2.88,1.799
		c-0.074,0.619-0.543,0.729-1.132,0.762c-4.076,0.234-4.039,0.264-2.412-3.505c1.692-3.921,3.33-7.867,4.935-11.825
		c0.39-0.962,1.306-1.363,1.871-2.117c1.242,0,2.483,0,3.725,0c0.553,0.512,0.666,1.219,0.808,1.9
		c0.881,4.209,1.741,8.423,2.632,12.63c0.098,0.461-0.017,1.059,0.595,1.301C57.584,55.369,57.584,55.887,57.584,56.404z
		 M50.851,44.047c-0.632,1.659-1.107,2.887-1.567,4.12c-0.856,2.299-0.853,2.252,1.666,2.252c1.011,0,1.252-0.286,1.008-1.25
		C51.569,47.626,51.28,46.057,50.851,44.047z"/>
	<path fill="#F1F1F1" d="M34.61,53.161c0.403-0.08,0.831-0.1,1.202-0.255c0.574-0.24,1.11-0.597,1.249-1.264
		c0.153-0.738-0.373-1.159-0.891-1.488c-0.822-0.522-1.709-0.94-2.54-1.448c-1.614-0.986-2.851-2.213-2.698-4.324
		c0.154-2.135,1.379-3.49,3.182-4.403c0.755-0.383,1.573-0.642,2.363-0.958c1.449,0,2.897,0,4.346,0
		c2.046,0.541,1.746,1.878,1.296,3.43c-0.251,0.867-0.514,0.926-1.251,0.623c-1.172-0.481-2.422-0.44-3.659-0.322
		c-0.777,0.074-1.442,0.445-1.584,1.239c-0.131,0.734,0.417,1.157,1.041,1.484c1.001,0.524,1.983,1.088,2.96,1.656
		c3.391,1.972,2.555,6.787-0.405,8.239c-1.171,0.574-2.29,1.306-3.677,1.244C35.682,55.341,34.739,54.361,34.61,53.161z"/>
	<path fill="#F1F1F1" d="M29.336,39.021c0.216,0.406,0.32,0.785,0.206,1.288c-0.809,3.567-1.425,7.186-2.412,10.701
		c-0.414,1.474-0.467,2.973-0.853,4.43c-0.187,0.706-0.419,1.011-1.209,1.043c-3.596,0.145-3.586,0.175-2.832-3.281
		c0.91-4.168,1.819-8.337,2.688-12.514c0.129-0.618,0.377-1.145,0.686-1.667C26.853,39.021,28.095,39.021,29.336,39.021z"/>
	<path fill="#F1F1F1" d="M2.423,39.383c2.702,0,5.406-0.057,8.104,0.035c0.797,0.027,1.379,0.683,1.549,1.535
		c0.564,2.829,1.311,5.626,1.451,8.528c0.016,0.324-0.184,0.82,0.327,0.886c0.448,0.058,0.512-0.411,0.646-0.742
		c1.214-3.016,2.505-6.003,3.612-9.058c0.381-1.052,0.893-1.27,1.901-1.257c3.45,0.046,3.42-0.003,2.055,3.15
		c-1.826,4.215-3.637,8.438-5.371,12.691c-0.418,1.025-0.944,1.367-2.043,1.345c-3.235-0.066-3.245-0.013-4.082-3.122
		c-0.872-3.24-1.827-6.463-2.542-9.738c-0.362-1.658-1.239-2.499-2.764-2.919c-0.976-0.269-1.93-0.614-2.894-0.925
		C2.388,39.657,2.405,39.52,2.423,39.383z"/>
	<path fill="#F1F1F1" d="M34.61,53.161c0.13,1.2,1.073,2.18,0.932,3.453c-1.804,0.182-3.58,0.091-5.342-0.397
		c-0.829-0.23-1.329-0.528-0.909-1.473c0.061-0.137,0.058-0.302,0.092-0.452c0.449-2.024,0.44-1.985,2.487-1.485
		C32.758,53.025,33.695,53.049,34.61,53.161z"/>
</g>
<g opacity="0.6">
	<path fill="#F1F1F1" d="M9.871,266.002c-0.442,2.484-0.886,4.966-1.326,7.448c-0.141,0.795-0.303,1.589-0.401,2.39
		c-0.064,0.518-0.27,0.702-0.806,0.689c-1.436-0.036-2.874-0.041-4.31,0.001c-0.629,0.019-0.729-0.16-0.615-0.758
		c0.886-4.669,1.738-9.345,2.601-14.018c0.005-0.029,0.017-0.057,0.024-0.086c0.196-0.834-0.024-2.007,0.618-2.425
		c0.616-0.401,1.675-0.129,2.54-0.14c0.838-0.01,1.679,0.04,2.513-0.017c0.59-0.04,0.83,0.195,1.018,0.723
		c1.07,3.014,2.174,6.016,3.268,9.022c0.07,0.193,0.154,0.382,0.322,0.792c0.394-2.142,0.748-4.066,1.103-5.99
		c0.233-1.263,0.515-2.52,0.683-3.792c0.084-0.636,0.349-0.754,0.924-0.752c6.256,0.018,12.512,0.011,18.768,0.011
		c4.58,0,9.16,0.016,13.739-0.017c0.715-0.005,0.883,0.192,0.728,0.859c-0.196,0.844-0.352,1.7-0.471,2.558
		c-0.063,0.459-0.263,0.583-0.701,0.576c-1.407-0.023-2.814,0.008-4.22-0.017c-0.469-0.009-0.708,0.105-0.76,0.614
		c-0.065,0.623-0.184,1.244-0.337,1.852c-0.134,0.533,0.098,0.597,0.544,0.59c1.257-0.021,2.515,0.018,3.771-0.019
		c0.616-0.018,0.886,0.102,0.706,0.792c-0.218,0.836-0.084,1.987-0.599,2.464c-0.57,0.528-1.713,0.127-2.606,0.158
		c-0.658,0.023-1.317-0.001-1.975,0.008c-0.198,0.003-0.497-0.085-0.553,0.163c-0.196,0.872-0.366,1.752-0.488,2.636
		c-0.041,0.297,0.291,0.232,0.48,0.233c2.544,0.006,5.089-0.008,7.633,0.013c0.506,0.004,0.571-0.269,0.641-0.656
		c0.721-3.971,1.473-7.937,2.165-11.913c0.121-0.696,0.352-0.941,1.071-0.912c1.404,0.058,2.813,0.035,4.22,0.008
		c0.522-0.01,0.64,0.106,0.536,0.654c-0.723,3.789-1.387,7.589-2.116,11.376c-0.123,0.64,0.035,0.777,0.63,0.747
		c0.776-0.04,1.558-0.041,2.334,0c0.585,0.031,0.816-0.146,0.925-0.764c0.664-3.768,1.4-7.523,2.068-11.29
		c0.101-0.567,0.289-0.741,0.852-0.726c1.436,0.037,2.875,0.051,4.309-0.004c0.695-0.027,0.709,0.275,0.611,0.793
		c-0.684,3.612-1.353,7.228-2.037,10.84c-0.216,1.143-0.229,1.14,0.895,1.141c0.21,0,0.419,0,0.629,0
		c2.283,0,2.266-0.003,2.677-2.292c0.585-3.267,1.211-6.526,1.784-9.795c0.091-0.519,0.265-0.687,0.797-0.683
		c3.203,0.024,6.406,0.028,9.608-0.002c0.606-0.005,0.714,0.19,0.596,0.727c-0.232,1.046-0.111,2.385-0.728,3.067
		c-0.567,0.627-1.927,0.126-2.935,0.188c-0.03,0.002-0.06,0-0.09,0c-2.403,0-2.39,0.002-2.7,2.398
		c-0.064,0.498,0.084,0.625,0.555,0.617c1.287-0.023,2.575,0.021,3.861-0.02c0.599-0.019,0.727,0.186,0.598,0.729
		c-0.205,0.87-0.107,1.992-0.627,2.554c-0.504,0.545-1.642,0.109-2.499,0.168c-0.089,0.006-0.18,0.001-0.269,0.001
		c-2.523,0-2.512,0.001-2.825,2.558c-0.045,0.369,0.026,0.485,0.385,0.484c2.574-0.006,5.149-0.014,7.723,0.005
		c0.616,0.004,0.541-0.45,0.606-0.796c0.728-3.909,1.458-7.817,2.149-11.732c0.123-0.699,0.335-0.99,1.125-0.957
		c2.569,0.11,5.147-0.108,7.713,0.172c0.533,0.058,1.069,0.143,1.588,0.275c2.663,0.674,3.967,2.181,3.998,4.586
		c0.035,2.753-1.287,4.579-3.918,5.274c-0.682,0.18-0.741,0.399-0.495,1.01c0.714,1.774,1.348,3.581,2.044,5.362
		c0.208,0.533,0.265,0.8-0.476,0.774c-1.435-0.049-2.874-0.035-4.31-0.003c-0.512,0.011-0.722-0.159-0.863-0.656
		c-0.662-2.328-1.372-4.643-2.063-6.963c-0.041-0.139-0.031-0.302-0.292-0.397c-0.384,2.067-0.776,4.122-1.143,6.181
		c-0.325,1.822-0.312,1.824-2.173,1.824c-16.852,0-33.705,0-50.557,0c-1.13,0-1.123,0.001-0.916-1.122
		c0.716-3.88,1.407-7.766,2.16-11.639c0.125-0.643-0.071-0.688-0.598-0.696c-2.441-0.041-2.435-0.052-2.863,2.316
		c-0.616,3.412-1.259,6.82-1.849,10.237c-0.116,0.673-0.322,0.929-1.064,0.925c-6.226-0.035-12.452-0.029-18.678-0.005
		c-0.609,0.002-0.879-0.163-1.075-0.755c-1.043-3.149-2.137-6.281-3.214-9.418C10.12,266.227,10.141,266.052,9.871,266.002z
		 M26.493,263.067c-0.658,0-1.317,0-1.975,0c-2.484,0-2.464,0.003-2.793,2.453c-0.066,0.493,0.083,0.565,0.493,0.559
		c0.898-0.014,1.796-0.025,2.693,0.002c0.679,0.021,1.595-0.306,1.964,0.156c0.279,0.349-0.108,1.238-0.215,1.883
		c-0.231,1.394-0.235,1.393-1.618,1.393c-0.599,0-1.197,0-1.796,0c-2.393,0-2.378,0.002-2.747,2.426
		c-0.074,0.485,0.015,0.628,0.511,0.624c2.484-0.019,4.968-0.018,7.451-0.001c0.452,0.003,0.627-0.165,0.703-0.598
		c0.488-2.767,0.981-5.533,1.513-8.292c0.099-0.514-0.028-0.623-0.505-0.614C28.947,263.082,27.72,263.067,26.493,263.067z
		 M93.52,267.302c0.694,0.007,1.373-0.082,2.01-0.369c0.939-0.424,1.47-1.377,1.364-2.403c-0.101-0.973-0.708-1.576-1.841-1.77
		c-0.409-0.07-0.833-0.045-1.249-0.082c-0.431-0.038-0.643,0.107-0.71,0.573c-0.14,0.974-0.344,1.938-0.524,2.906
		C92.355,267.306,92.355,267.305,93.52,267.302z"/>
	<path fill="#F1F1F1" d="M105.985,276.521c-1.415,0.006-2.581-1.131-2.607-2.543c-0.027-1.423,1.2-2.647,2.63-2.624
		c1.415,0.023,2.555,1.187,2.548,2.603C108.547,275.379,107.409,276.514,105.985,276.521z M107.312,275.258
		c0.456,0.031,0.509-0.356,0.616-0.639c0.419-1.104-0.244-2.345-1.405-2.674c-1.148-0.326-2.337,0.396-2.589,1.571
		c-0.249,1.16,0.565,2.355,1.742,2.465c0.653,0.061,1.37,0.11,1.65-0.737L107.312,275.258z"/>
	<path fill="#F1F1F1" d="M107.326,275.244c-0.49,0.128-0.595-0.31-0.8-0.569c-0.232-0.292-0.45-0.587-0.873-0.489
		c-0.52,0.121-0.159,0.545-0.249,0.817c-0.045,0.135-0.024,0.296-0.48,0.402c0-0.883-0.183-1.772,0.055-2.528
		c0.205-0.652,1.051-0.309,1.597-0.266c0.428,0.034,0.74,0.604,0.502,0.868c-0.609,0.677-0.111,1.054,0.212,1.524
		c0.042,0.061,0.016,0.168,0.021,0.254L107.326,275.244z M105.973,272.919c-0.333,0.001-0.665-0.021-0.646,0.48
		c0.015,0.393,0.256,0.419,0.538,0.384c0.334-0.041,0.79,0.016,0.78-0.49C106.638,272.897,106.272,272.914,105.973,272.919z"/>
</g>
<g opacity="0.6">
	<path fill="#F1F1F1" d="M2.702,313.607c0.653,0.242,1.284,0.457,1.935,0.608c1.354,0.314,2.719,0.508,4.113,0.394
		c0.611-0.05,1.205-0.177,1.723-0.529c0.534-0.363,0.753-0.93,0.583-1.53c-0.179-0.632-0.688-0.856-1.269-0.953
		c-0.652-0.109-1.317-0.113-1.969-0.23c-1.278-0.229-2.498-0.609-3.532-1.427c-1.377-1.09-1.999-2.546-1.904-4.281
		c0.127-2.341,1.35-3.94,3.468-4.879c1.021-0.452,2.109-0.641,3.216-0.676c2.054-0.063,4.087,0.093,6.061,0.718
		c0.288,0.091,0.671,0.1,0.827,0.32c0.134,0.189,0.037,0.543,0.037,0.824c0.001,1.027-0.003,2.054,0.004,3.081
		c0.001,0.18-0.024,0.224-0.206,0.146c-1.507-0.647-3.089-1.005-4.715-1.156c-0.839-0.078-1.689-0.09-2.503,0.212
		c-0.748,0.278-1.096,0.924-0.893,1.643c0.137,0.487,0.509,0.717,0.954,0.859c0.446,0.143,0.914,0.14,1.375,0.185
		c1.513,0.149,2.958,0.505,4.265,1.327c3.075,1.932,3.106,6.105,0.776,8.318c-1.103,1.048-2.439,1.597-3.912,1.858
		c-1.351,0.24-2.711,0.182-4.072,0.107c-1.399-0.078-2.781-0.275-4.144-0.6c-0.177-0.042-0.222-0.111-0.221-0.286
		C2.706,316.322,2.702,314.983,2.702,313.607z"/>
	<path fill="#F1F1F1" d="M22.831,309.649c0.645-0.781,1.176-1.565,1.647-2.389c0.385-0.674,0.726-1.369,0.999-2.095
		c0.059-0.156,0.143-0.18,0.288-0.18c1.735,0.004,3.469,0.006,5.204-0.002c0.217-0.001,0.206,0.068,0.15,0.229
		c-0.751,2.179-1.799,4.2-3.199,6.033c-0.152,0.199-0.164,0.332-0.041,0.553c0.99,1.788,1.934,3.599,2.644,5.52
		c0.108,0.292,0.194,0.591,0.292,0.886c0.05,0.151,0.018,0.211-0.159,0.209c-1.08-0.007-2.161-0.004-3.241-0.004
		c-0.73,0-1.461-0.012-2.191,0.007c-0.231,0.006-0.288-0.083-0.337-0.28c-0.355-1.434-0.832-2.824-1.509-4.141
		c-0.153-0.297-0.317-0.588-0.517-0.881c-0.05,0.085-0.03,0.167-0.03,0.243c-0.001,1.605-0.004,3.21,0.003,4.816
		c0.001,0.189-0.048,0.241-0.238,0.24c-1.491-0.008-2.982-0.007-4.473,0c-0.175,0.001-0.229-0.04-0.229-0.224
		c0.005-5.645,0.005-11.29-0.001-16.935c0-0.174,0.067-0.217,0.212-0.245c1.491-0.289,2.982-0.578,4.47-0.88
		c0.214-0.044,0.26-0.008,0.26,0.211c-0.007,2.997-0.005,5.995-0.005,8.992C22.831,309.417,22.831,309.501,22.831,309.649z"/>
	<path fill="#F1F1F1" d="M59.765,309.242c0,2.974-0.002,5.948,0.005,8.923c0,0.201-0.048,0.252-0.25,0.251
		c-1.438-0.009-2.875-0.008-4.313-0.002c-0.17,0.001-0.233-0.032-0.233-0.221c0.005-5.682,0.005-11.364,0.001-17.047
		c0-0.164,0.046-0.215,0.209-0.243c1.459-0.252,2.917-0.51,4.373-0.783c0.221-0.042,0.21,0.044,0.21,0.199
		C59.764,303.294,59.765,306.268,59.765,309.242z"/>
	<path fill="#F1F1F1" d="M52.783,309.241c0,2.966-0.002,5.932,0.005,8.897c0,0.21-0.034,0.281-0.266,0.279
		c-1.422-0.012-2.844-0.01-4.266-0.002c-0.19,0.001-0.259-0.031-0.259-0.245c0.007-5.665,0.007-11.331,0-16.996
		c0-0.203,0.072-0.245,0.253-0.277c1.444-0.249,2.886-0.507,4.326-0.776c0.188-0.035,0.209,0.007,0.209,0.176
		C52.782,303.279,52.783,306.26,52.783,309.241z"/>
	<path fill="#F1F1F1" d="M31.849,313.93c0.016-1.077-0.046-2.394,0.031-3.708c0.086-1.464,0.53-2.788,1.652-3.806
		c0.848-0.769,1.878-1.165,2.98-1.383c0.964-0.191,1.94-0.274,2.925-0.198c0.339,0.026,0.339,0.022,0.339,0.366
		c0,1.11-0.006,2.22,0.005,3.331c0.002,0.207-0.034,0.287-0.264,0.288c-0.402,0.002-0.802,0.063-1.193,0.168
		c-0.951,0.256-1.444,0.831-1.569,1.813c-0.066,0.514-0.086,1.029-0.086,1.547c0.001,1.939-0.003,3.878,0.005,5.817
		c0.001,0.198-0.044,0.252-0.248,0.251c-1.445-0.01-2.89-0.01-4.334,0c-0.208,0.001-0.249-0.061-0.248-0.256
		C31.853,316.83,31.849,315.499,31.849,313.93z"/>
	<path fill="#F1F1F1" d="M41.199,311.709c0-2.152,0.002-4.304-0.004-6.456c-0.001-0.183,0.037-0.245,0.233-0.244
		c1.445,0.008,2.889,0.008,4.334,0c0.18-0.001,0.224,0.047,0.224,0.225c-0.005,4.319-0.005,8.638,0,12.957
		c0,0.183-0.053,0.224-0.228,0.223c-1.437-0.007-2.874-0.008-4.311,0.001c-0.199,0.001-0.254-0.047-0.253-0.251
		C41.202,316.013,41.199,313.861,41.199,311.709z"/>
	<path fill="#F1F1F1" d="M45.944,301.376c-0.003,1.298-1.055,2.351-2.35,2.352c-1.297,0.001-2.365-1.074-2.356-2.373
		c0.008-1.296,1.072-2.345,2.366-2.334C44.914,299.032,45.947,300.072,45.944,301.376z"/>
</g>
<g opacity="0.6">
	<path fill="#F1F1F1" d="M2.372,128.199c0.228-0.079,0.176-0.308,0.228-0.467c0.38-1.158,1.178-1.882,2.369-1.899
		c2.733-0.04,5.467-0.045,8.2,0.014c1.38,0.03,2.353,1.031,2.394,2.496c0.069,2.453,0.076,4.912-0.002,7.364
		c-0.05,1.578-1.085,2.496-2.674,2.515c-2.594,0.03-5.19,0.027-7.784,0.005c-1.266-0.011-2.106-0.698-2.503-1.914
		c-0.052-0.158,0.002-0.388-0.227-0.466C2.372,133.299,2.372,130.749,2.372,128.199z"/>
	<path fill="#F1F1F1" d="M45.9,142.941c0.007-0.856,0.053-1.715,0.007-2.568c-0.031-0.564,0.2-0.637,0.683-0.63
		c1.76,0.025,3.52,0.016,5.281,0.007c0.759-0.004,1.077-0.344,1.079-1.042c0.001-0.362-0.131-0.483-0.491-0.478
		c-1.135,0.017-2.27,0.009-3.405,0.005c-1.843-0.006-3.085-1.136-3.117-2.989c-0.052-2.987-0.011-5.975-0.023-8.963
		c-0.001-0.358,0.11-0.495,0.475-0.484c0.671,0.021,1.345,0.039,2.014-0.005c0.528-0.035,0.594,0.203,0.591,0.65
		c-0.018,2.409-0.009,4.818-0.008,7.226c0.001,1.278,0.166,1.442,1.437,1.443c0.463,0,0.927,0.012,1.39-0.004
		c0.818-0.028,1.127-0.34,1.129-1.155c0.006-2.478,0.021-4.957-0.012-7.435c-0.008-0.583,0.156-0.774,0.735-0.726
		c0.598,0.049,1.204,0.026,1.806,0.006c0.348-0.011,0.493,0.091,0.492,0.467c-0.016,4.539,0,9.079-0.035,13.618
		c-0.012,1.514-0.811,2.537-2.24,3.056C51.092,142.941,48.496,142.941,45.9,142.941z"/>
	<path fill="#F1F1F1" d="M20.729,142.941c0.013-1.758,0.033-3.516,0.037-5.275c0.006-2.756,0.002-5.512,0.001-8.268
		c0-0.558,0.039-1.11,0.194-1.649c0.329-1.141,1.166-1.882,2.352-1.915c1.689-0.047,3.382-0.053,5.07,0.01
		c1.455,0.054,2.401,1.043,2.457,2.674c0.081,2.359,0.069,4.724,0.014,7.085c-0.033,1.397-1.349,2.592-2.762,2.623
		c-1.227,0.027-2.455,0.01-3.682,0.007c-0.293-0.001-0.562-0.013-0.549,0.412c0.044,1.431-0.076,2.865,0.065,4.295
		C22.861,142.941,21.795,142.941,20.729,142.941z M27.812,132.024c0-0.74-0.002-1.481,0.001-2.221
		c0.002-0.565-0.272-0.867-0.84-0.874c-0.694-0.008-1.389-0.02-2.082,0.003c-0.724,0.024-1.031,0.308-1.044,1.017
		c-0.024,1.388-0.014,2.776-0.004,4.164c0.005,0.644,0.357,0.982,0.996,0.995c0.671,0.013,1.342,0.019,2.012,0
		c0.669-0.019,0.948-0.319,0.959-1.002C27.822,133.412,27.813,132.718,27.812,132.024z"/>
	<path fill="#F1F1F1" d="M10.021,119.021c0.194,0.235,0.492,0.196,0.743,0.268c2.8,0.804,4.714,3.55,4.492,6.532
		c-0.491-0.292-0.957-0.585-1.504-0.702c-0.217-0.046-0.211-0.272-0.271-0.445c-0.71-2.033-2.386-3.277-4.42-3.289
		c-2.073-0.012-3.747,1.213-4.479,3.29c-0.088,0.25-0.172,0.443-0.477,0.514c-0.45,0.105-0.83,0.382-1.293,0.668
		c-0.141-1.401,0.166-2.642,0.858-3.783c0.92-1.516,2.263-2.472,3.989-2.891c0.142-0.034,0.34,0.05,0.415-0.163
		C8.723,119.021,9.372,119.021,10.021,119.021z"/>
	<path fill="#F1F1F1" d="M43.425,131.991c-0.001,1.112,0.017,2.224-0.004,3.335c-0.035,1.844-1.132,2.906-2.974,2.909
		c-1.367,0.002-2.733,0.01-4.1-0.002c-2.031-0.018-2.973-0.964-2.985-2.984c-0.005-0.88-0.018-1.761,0.011-2.64
		c0.052-1.573,0.926-2.48,2.484-2.626c1.318-0.124,2.639-0.03,3.958-0.067c0.226-0.006,0.553,0.115,0.558-0.31
		c0.004-0.314-0.114-0.549-0.447-0.603c-0.25-0.041-0.504-0.071-0.757-0.072c-1.737-0.006-3.475-0.019-5.212,0.007
		c-0.462,0.007-0.601-0.138-0.578-0.588c0.034-0.67,0.036-1.344-0.001-2.014c-0.024-0.445,0.147-0.541,0.558-0.537
		c2.131,0.019,4.262-0.011,6.393,0.018c2.156,0.03,3.079,0.98,3.094,3.119C43.431,129.952,43.425,130.972,43.425,131.991z
		 M38.377,135.113c0-0.003,0-0.005,0-0.008c0.438,0,0.878,0.024,1.315-0.005c0.772-0.053,0.713-0.64,0.716-1.177
		c0.003-0.517-0.049-1.009-0.732-1.019c-0.876-0.013-1.753-0.004-2.63-0.002c-0.387,0.001-0.573,0.186-0.616,0.585
		c-0.15,1.388,0.054,1.626,1.463,1.626C38.054,135.113,38.216,135.113,38.377,135.113z"/>
	<path fill="#F1F1F1" d="M80.013,131.989c0.001,1.089,0.016,2.179-0.003,3.268c-0.033,1.947-1.095,2.977-3.044,2.978
		c-1.367,0.001-2.735,0.014-4.102-0.004c-1.949-0.025-2.902-0.986-2.915-2.919c-0.006-0.881-0.015-1.762,0.007-2.642
		c0.039-1.611,0.915-2.54,2.501-2.69c1.319-0.124,2.64-0.028,3.96-0.067c0.204-0.006,0.525,0.129,0.561-0.221
		c0.031-0.308-0.064-0.616-0.441-0.685c-0.249-0.046-0.504-0.077-0.756-0.078c-1.715-0.007-3.43-0.021-5.145,0.007
		c-0.498,0.008-0.714-0.094-0.673-0.644c0.05-0.668,0.028-1.344,0.006-2.015c-0.012-0.364,0.118-0.482,0.478-0.479
		c2.294,0.018,4.59-0.016,6.883,0.037c1.663,0.039,2.583,1.013,2.673,2.676c0.004,0.069,0.009,0.139,0.009,0.208
		C80.012,129.81,80.012,130.899,80.013,131.989z M74.96,132.865c0,0.006,0,0.012,0,0.018c-0.37,0-0.74,0.018-1.109-0.004
		c-0.755-0.043-0.864,0.398-0.847,1.016c0.024,0.912,0.167,1.181,0.849,1.209c0.785,0.031,1.572,0.019,2.357,0.001
		c0.331-0.008,0.629-0.102,0.752-0.488c0.358-1.123-0.07-1.739-1.239-1.752C75.468,132.862,75.214,132.865,74.96,132.865z"/>
	<path fill="#F1F1F1" d="M95.637,138.23c-1.066,0-2.133,0.019-3.198-0.005c-1.568-0.035-2.629-0.92-2.757-2.464
		c-0.207-2.495-0.164-5.004-0.053-7.501c0.069-1.545,1.055-2.383,2.604-2.428c1.575-0.046,3.152-0.047,4.727-0.004
		c1.597,0.044,2.543,0.986,2.619,2.569c0.044,0.924,0.285,1.982-0.07,2.743c-0.351,0.752-1.536,0.769-2.352,1.112
		c-1.258,0.529-2.54,0.998-3.803,1.516c-0.28,0.115-0.754,0.089-0.631,0.64c0.115,0.514,0.413,0.717,0.941,0.71
		c1.645-0.019,3.291-0.007,4.937-0.007c0.989,0,0.989,0,0.989,0.993c0,0.556-0.02,1.113,0.007,1.668
		c0.018,0.375-0.129,0.472-0.482,0.467c-1.159-0.017-2.318-0.006-3.477-0.006C95.637,138.234,95.637,138.232,95.637,138.23z
		 M92.676,131c1.149-0.429,2.245-0.835,3.337-1.25c0.179-0.068,0.468-0.071,0.451-0.334c-0.018-0.287-0.266-0.434-0.536-0.45
		c-0.528-0.032-1.058-0.038-1.587-0.039c-1.546-0.004-1.74,0.2-1.702,1.76C92.641,130.756,92.655,130.824,92.676,131z"/>
	<path fill="#F1F1F1" d="M62.041,138.235c-1.02,0-2.04-0.018-3.059,0.009c-0.436,0.011-0.626-0.093-0.597-0.57
		c0.04-0.646,0.039-1.299,0-1.945c-0.029-0.484,0.123-0.637,0.617-0.627c1.459,0.031,2.92,0.013,4.38,0.009
		c0.23-0.001,0.462-0.023,0.69-0.053c0.431-0.058,0.585-0.356,0.557-0.743c-0.028-0.403-0.19-0.717-0.675-0.714
		c-0.765,0.005-1.53-0.023-2.294,0.005c-1.631,0.06-3.455-1.149-3.25-3.232c0.063-0.643-0.007-1.298,0.019-1.945
		c0.061-1.534,0.933-2.521,2.452-2.576c2.152-0.079,4.309-0.031,6.464-0.053c0.369-0.004,0.409,0.179,0.404,0.473
		c-0.011,0.718-0.024,1.438,0.004,2.155c0.016,0.403-0.13,0.511-0.517,0.506c-1.437-0.019-2.873-0.009-4.31-0.005
		c-0.254,0.001-0.508,0.022-0.762,0.04c-0.497,0.034-0.757,0.26-0.719,0.8c0.037,0.538,0.397,0.64,0.813,0.649
		c0.787,0.018,1.576,0.006,2.364,0.007c2.03,0.002,3.119,1.095,3.124,3.136c0.001,0.556,0.003,1.112,0,1.668
		c-0.012,1.804-1.202,3-2.992,3.006C63.848,138.238,62.945,138.235,62.041,138.235z"/>
	<path fill="#F1F1F1" d="M82.508,130.844c0-2.083-0.001-4.166,0-6.249c0.001-2.173,1.025-3.282,3.204-3.441
		c0.53-0.039,1.064-0.002,1.596-0.02c0.309-0.011,0.469,0.068,0.46,0.42c-0.019,0.74-0.021,1.482,0.001,2.222
		c0.011,0.355-0.145,0.428-0.455,0.419c-0.322-0.01-0.652-0.009-0.966,0.05c-0.578,0.109-0.944,0.791-0.757,1.34
		c0.04,0.119,0.098,0.207,0.231,0.218c0.092,0.007,0.185,0.005,0.277,0.01c0.527,0.028,1.228-0.226,1.538,0.099
		c0.369,0.384,0.111,1.1,0.12,1.67c0.02,1.35,0.006,1.383-1.381,1.339c-0.635-0.02-0.822,0.159-0.812,0.805
		c0.038,2.545,0.019,5.092,0.014,7.638c-0.002,0.993,0.115,0.86-0.903,0.871c-0.532,0.006-1.067-0.031-1.596,0.01
		c-0.479,0.037-0.581-0.157-0.578-0.596C82.518,135.381,82.508,133.113,82.508,130.844z"/>
	<path fill="#F1F1F1" d="M143.352,128.955c-0.067,1.86,0.147,4.158-0.091,6.442c-0.183,1.754-1.22,2.699-2.963,2.82
		c-1.434,0.1-2.871,0.08-4.305-0.005c-1.519-0.09-2.636-1.097-2.736-2.631c-0.155-2.357-0.165-4.726,0.008-7.082
		c0.126-1.716,1.368-2.736,3.241-2.777c1.713-0.038,3.428-0.006,5.143-0.017c1.082-0.007,0.925,0.158,0.937-0.97
		c0.008-0.741-0.032-1.485,0.018-2.223c0.02-0.29-0.313-0.822,0.349-0.844c0.679-0.023,0.38,0.525,0.384,0.81
		C143.365,124.492,143.352,126.508,143.352,128.955z M142.587,130.985c0-1.321-0.006-2.641,0.004-3.962
		c0.003-0.342-0.027-0.568-0.472-0.561c-1.923,0.028-3.847-0.008-5.768,0.048c-1.445,0.042-2.397,1.057-2.414,2.515
		c-0.024,2.062-0.019,4.124-0.001,6.186c0.011,1.27,0.551,1.928,1.811,2.167c1.444,0.274,2.918,0.235,4.36,0.067
		c1.783-0.208,2.465-1.104,2.479-2.915C142.593,133.349,142.587,132.167,142.587,130.985z"/>
	<path fill="#F1F1F1" d="M123.241,132.276c0,1.111,0.044,2.224-0.011,3.332c-0.072,1.45-1.196,2.562-2.652,2.608
		c-1.504,0.047-3.011,0.05-4.514-0.006c-1.426-0.052-2.533-1.095-2.725-2.507c-0.156-1.151-0.15-2.315,0.032-3.461
		c0.235-1.484,1.333-2.327,3.056-2.354c1.829-0.029,3.659-0.027,5.488,0.002c0.513,0.008,0.699-0.118,0.659-0.651
		c-0.042-0.56-0.08-1.106-0.355-1.609c-0.385-0.702-0.944-1.128-1.774-1.133c-2.084-0.013-4.167-0.028-6.251-0.042
		c-0.185-0.001-0.371-0.01-0.556,0c-0.285,0.015-0.351-0.14-0.348-0.389c0.003-0.261,0.105-0.366,0.375-0.363
		c2.269,0.018,4.541-0.038,6.807,0.06c1.573,0.068,2.532,1.099,2.752,2.697C123.398,129.727,123.256,131.005,123.241,132.276z
		 M119.228,130.628c0,0.009,0,0.018,0,0.028c-1.018,0-2.038-0.049-3.052,0.012c-1.326,0.08-2.096,0.924-2.14,2.258
		c-0.024,0.74-0.018,1.481-0.003,2.221c0.03,1.406,0.921,2.324,2.35,2.361c1.341,0.035,2.684,0.033,4.025-0.006
		c1.303-0.038,2.074-0.8,2.111-2.093c0.042-1.433,0.005-2.869,0.031-4.303c0.008-0.429-0.193-0.489-0.547-0.484
		C121.079,130.637,120.154,130.628,119.228,130.628z"/>
	<path fill="#F1F1F1" d="M102.502,131.759c-0.001-1.042-0.012-2.085,0.002-3.127c0.022-1.65,1.086-2.81,2.755-2.886
		c1.572-0.071,3.15-0.03,4.725-0.039c0.235-0.001,0.458-0.027,0.47,0.332c0.013,0.384-0.203,0.391-0.483,0.396
		c-1.505,0.024-3.011-0.072-4.515,0.06c-1.595,0.14-2.216,0.794-2.231,2.413c-0.018,1.899-0.022,3.799,0.001,5.699
		c0.024,2.017,0.939,2.898,2.971,2.909c1.251,0.007,2.502-0.006,3.753,0.008c0.236,0.003,0.586-0.158,0.603,0.328
		c0.016,0.462-0.294,0.383-0.56,0.383c-1.436,0-2.873,0.019-4.309-0.014c-1.957-0.045-3.133-1.235-3.176-3.195
		C102.483,133.937,102.503,132.848,102.502,131.759z"/>
	<path fill="#F1F1F1" d="M126.947,133.154c0-1.39-0.008-2.78,0.002-4.17c0.019-2.686,1.739-3.355,3.83-3.281
		c0.277,0.01,0.353,0.124,0.354,0.382c0.002,0.29-0.15,0.347-0.392,0.349c-0.254,0.002-0.509,0.017-0.762,0.045
		c-1.581,0.173-2.299,0.949-2.307,2.554c-0.014,2.873-0.003,5.745-0.01,8.618c-0.001,0.189,0.117,0.465-0.14,0.551
		c-0.377,0.125-0.594,0.015-0.587-0.461c0.024-1.529,0.009-3.058,0.009-4.587C126.945,133.154,126.946,133.154,126.947,133.154z"/>
</g>
<g opacity="0.6">
	<path fill="#F1F1F1" d="M39.112-0.979c0.036,0.033,0.081,0.019,0.121,0.021c1.223,0.061,2.412,0.292,3.56,0.724
		c1.119,0.421,2.138,1.01,3.001,1.844c1.259,1.215,2.103,2.676,2.554,4.366c0.096,0.359,0.167,0.723,0.225,1.09
		c0.006,0.037,0.007,0.076,0.01,0.113c-0.043,0.016-0.07-0.01-0.098-0.023c-0.629-0.286-1.289-0.377-1.974-0.32
		c-0.32,0.028-0.631,0.096-0.939,0.185c-0.013-0.062-0.025-0.125-0.039-0.187c-0.146-0.631-0.369-1.233-0.67-1.807
		c-0.273-0.521-0.607-1-0.997-1.438c-0.507-0.57-1.103-1.032-1.774-1.395c-0.604-0.327-1.242-0.567-1.907-0.733
		c-0.438-0.11-0.882-0.186-1.331-0.238c-0.314-0.036-0.629-0.043-0.943-0.065c-0.203-0.014-0.409,0.002-0.614,0.011
		c-0.341,0.016-0.68,0.042-1.019,0.082c-0.389,0.046-0.774,0.116-1.156,0.202c-0.658,0.15-1.299,0.354-1.924,0.612
		c-0.681,0.281-1.332,0.619-1.952,1.015c-0.668,0.426-1.284,0.918-1.863,1.457c-0.325,0.303-0.627,0.63-0.915,0.968
		c-0.41,0.481-0.786,0.989-1.123,1.524c-0.025,0.04-0.057,0.076-0.06,0.125c-0.246-0.13-0.5-0.235-0.776-0.287
		c-0.393-0.074-0.782-0.059-1.168,0.042c-0.016,0.004-0.032,0.008-0.048,0.012c-0.02-0.032,0.002-0.05,0.014-0.069
		c1.579-2.644,3.694-4.727,6.435-6.156c1.279-0.667,2.629-1.135,4.044-1.412c0.528-0.103,1.061-0.18,1.598-0.217
		c0.234-0.016,0.468-0.032,0.702-0.047C38.428-0.979,38.77-0.979,39.112-0.979z"/>
	<path opacity="0.8" fill="#F1F1F1" enable-background="new    " d="M2.425,9.92c0.04-0.382,0.152-0.743,0.322-1.086
		C3.149,8.026,3.78,7.5,4.666,7.298c0.551-0.125,1.103-0.121,1.645,0.044c0.695,0.212,1.176,0.671,1.475,1.327
		C7.978,9.091,8.068,9.537,8.09,9.996c0.014,0.291,0.002,0.581-0.042,0.87c-0.011,0.074-0.039,0.094-0.105,0.086
		c-0.025-0.003-0.051,0-0.077,0c-1.18,0-2.36,0-3.54,0c-0.047,0-0.093,0-0.149,0c0.017,0.25,0.108,0.459,0.272,0.636
		c0.2,0.218,0.457,0.338,0.737,0.415c0.368,0.101,0.744,0.093,1.12,0.068c0.388-0.027,0.77-0.092,1.141-0.212
		c0.051-0.016,0.075-0.01,0.086,0.051c0.071,0.377,0.146,0.754,0.222,1.131c0.012,0.061-0.013,0.081-0.065,0.1
		c-0.288,0.11-0.584,0.189-0.885,0.245c-0.476,0.088-0.957,0.125-1.441,0.103c-0.591-0.027-1.158-0.153-1.67-0.464
		c-0.662-0.402-1.046-1.001-1.217-1.747c-0.026-0.112-0.047-0.226-0.058-0.341c-0.005-0.048-0.002-0.102-0.046-0.139
		c0-0.197,0-0.393,0-0.59c0.034-0.065,0.046-0.134,0.043-0.206C2.419,9.981,2.422,9.96,2.425,9.939
		C2.428,9.932,2.429,9.926,2.425,9.92z M6.348,9.666c0-0.06,0.005-0.111-0.001-0.161c-0.03-0.272-0.11-0.525-0.294-0.736
		C5.712,8.376,4.976,8.352,4.576,8.751c-0.177,0.177-0.29,0.388-0.357,0.626C4.193,9.47,4.163,9.562,4.168,9.665
		C4.897,9.666,5.618,9.666,6.348,9.666z"/>
	<path opacity="0.8" fill="#F1F1F1" enable-background="new    " d="M21.46,26.371c0.003-0.05,0.038-0.084,0.062-0.123
		c0.12-0.199,0.241-0.397,0.363-0.595c0.022-0.013,0.044-0.024,0.072-0.024c0.209-0.002,0.418-0.005,0.627-0.023
		c0.195-0.017,0.392-0.014,0.588-0.022c0.469-0.019,0.938-0.039,1.407-0.054c0.273-0.009,0.545-0.033,0.819-0.029
		c0.061,0.001,0.091-0.025,0.118-0.075c0.068-0.128,0.142-0.253,0.212-0.38c0.322-0.583,0.644-1.166,0.966-1.749
		c0.047-0.085,0.048-0.087,0.148-0.052c0.306,0.107,0.617,0.197,0.931,0.28c0.726,0.193,1.465,0.313,2.212,0.38
		c0.356,0.032,0.715,0.038,1.073,0.053c0.136,0.006,0.272-0.006,0.409-0.017c0.204-0.016,0.409-0.01,0.614-0.024
		c0.404-0.028,0.805-0.075,1.205-0.131c0.481-0.067,0.956-0.166,1.428-0.279c0.66-0.158,1.306-0.362,1.944-0.594
		c0.643-0.233,1.27-0.502,1.886-0.798c0.678-0.325,1.336-0.688,1.979-1.078c0.533-0.324,1.054-0.666,1.561-1.03
		c0.458-0.329,0.905-0.67,1.341-1.028c0.327-0.269,0.645-0.546,0.951-0.838c0.347-0.33,0.668-0.684,0.98-1.047
		c0.348-0.405,0.674-0.827,0.976-1.267c0.406-0.593,0.768-1.212,1.077-1.861c0.018-0.038,0.045-0.074,0.044-0.119
		c0.139-0.033,0.279-0.066,0.438-0.104c-0.017,0.045-0.026,0.075-0.038,0.104c-0.597,1.473-1.43,2.802-2.464,4.007
		c-0.888,1.035-1.919,1.909-3.018,2.708c-1.579,1.149-3.262,2.114-5.076,2.844c-1.03,0.414-2.086,0.738-3.174,0.958
		c-0.476,0.096-0.957,0.165-1.441,0.217c-0.63,0.068-1.262,0.084-1.894,0.071c-0.41-0.009-0.818-0.046-1.226-0.094
		c-0.905-0.107-1.786-0.314-2.648-0.605c-0.105-0.036-0.102-0.022-0.146,0.059c-0.383,0.695-0.77,1.388-1.15,2.085
		c-0.047,0.087-0.101,0.118-0.198,0.121c-0.773,0.024-1.546,0.053-2.319,0.083c-0.38,0.015-0.76,0.034-1.139,0.05
		c-0.115,0.005-0.227,0.033-0.343,0.023C21.563,26.371,21.512,26.371,21.46,26.371z"/>
	<path opacity="0.8" fill="#F1F1F1" enable-background="new    " d="M60.946,6.154c-0.111,0.001-0.222,0-0.333,0.006
		c-0.065,0.003-0.077-0.024-0.078-0.082c-0.005-0.295-0.032-0.589-0.023-0.884c0.002-0.051,0-0.101-0.007-0.153
		c-0.055,0.108-0.063,0.227-0.091,0.34c-0.056,0.223-0.11,0.447-0.158,0.673c-0.015,0.072-0.048,0.091-0.113,0.084
		c-0.03-0.003-0.06,0.001-0.09-0.001c-0.076-0.005-0.166,0.03-0.223-0.017c-0.051-0.044-0.041-0.135-0.057-0.205
		c-0.055-0.246-0.104-0.493-0.138-0.742c-0.006-0.041-0.018-0.081-0.047-0.121c0,0.034-0.001,0.069,0,0.103
		c0.007,0.304-0.022,0.606-0.032,0.91c-0.003,0.092-0.005,0.093-0.092,0.095c-0.077,0.001-0.154,0-0.231,0
		c-0.079,0.001-0.091,0.01-0.084-0.095c0.012-0.196,0.022-0.393,0.034-0.589c0.013-0.213,0.03-0.426,0.041-0.64
		c0.003-0.056,0.02-0.073,0.075-0.072c0.171,0.003,0.342,0.005,0.513-0.001c0.067-0.002,0.089,0.028,0.103,0.083
		c0.054,0.206,0.109,0.412,0.138,0.639c0.033-0.04,0.039-0.077,0.047-0.115c0.036-0.18,0.09-0.355,0.141-0.531
		c0.016-0.054,0.037-0.077,0.095-0.075c0.154,0.004,0.308,0.005,0.462,0c0.069-0.002,0.088,0.025,0.09,0.088
		c0.008,0.205,0.026,0.41,0.029,0.615c0.002,0.188,0.013,0.374,0.029,0.561C60.946,6.068,60.946,6.111,60.946,6.154z"/>
	<path fill="#F1F1F1" d="M2.415,10.001c0.002,0.072-0.009,0.141-0.043,0.206c0-0.068,0-0.137,0-0.205
		C2.387,10.026,2.401,10.007,2.415,10.001z"/>
	<path fill="#F1F1F1" d="M47.451,13.845c0,0.045-0.026,0.081-0.044,0.119c-0.31,0.649-0.671,1.268-1.077,1.861
		c-0.302,0.44-0.628,0.863-0.976,1.267c-0.312,0.363-0.634,0.717-0.98,1.047c-0.306,0.291-0.624,0.569-0.951,0.838
		c-0.435,0.358-0.883,0.699-1.341,1.028c-0.507,0.364-1.027,0.706-1.561,1.03c-0.643,0.39-1.301,0.753-1.979,1.078
		c-0.616,0.296-1.243,0.565-1.886,0.798c-0.638,0.231-1.284,0.436-1.944,0.594c-0.472,0.113-0.947,0.211-1.428,0.279
		c-0.401,0.056-0.801,0.103-1.205,0.131c-0.205,0.014-0.41,0.009-0.614,0.024c-0.136,0.011-0.272,0.023-0.409,0.017
		c-0.358-0.015-0.717-0.021-1.073-0.053c-0.747-0.067-1.486-0.187-2.212-0.38c-0.313-0.083-0.624-0.173-0.931-0.28
		c-0.101-0.035-0.101-0.033-0.148,0.052c-0.322,0.583-0.644,1.166-0.966,1.749c-0.07,0.127-0.144,0.252-0.212,0.38
		c-0.027,0.051-0.058,0.076-0.118,0.075c-0.273-0.004-0.546,0.021-0.819,0.029c-0.469,0.015-0.938,0.034-1.407,0.054
		c-0.196,0.008-0.393,0.005-0.588,0.022c-0.209,0.019-0.418,0.021-0.627,0.023c-0.027,0-0.049,0.012-0.072,0.024
		c-0.157,0-0.315,0-0.478,0c-0.003-0.052,0.034-0.085,0.056-0.122c0.651-1.062,1.304-2.124,1.956-3.186
		c0.024-0.039,0.06-0.074,0.059-0.125c0.088-0.078,0.131-0.187,0.193-0.282c0.111-0.171,0.109-0.173-0.057-0.28
		c-0.018-0.012-0.036-0.023-0.053-0.035c-0.626-0.419-1.227-0.871-1.794-1.367c-0.053-0.047-0.102-0.104-0.175-0.123
		c-0.051-0.093-0.145-0.141-0.214-0.216c-0.023-0.025-0.049-0.048-0.075-0.069c-0.036-0.029-0.041-0.054-0.012-0.095
		c0.351-0.499,0.701-0.999,1.059-1.512c0.7,0.768,1.47,1.443,2.337,1.999c0.042-0.008,0.048-0.041,0.063-0.065
		c0.421-0.688,0.842-1.376,1.262-2.064c0.02-0.032,0.048-0.061,0.045-0.104c0.091-0.081,0.133-0.196,0.201-0.292
		c0.044-0.062,0.03-0.105-0.021-0.155c-0.112-0.11-0.221-0.225-0.327-0.342c-0.378-0.417-0.688-0.88-0.95-1.375
		c-0.348-0.659-0.597-1.356-0.757-2.084c0.349-0.021,0.471-0.149,0.471-0.497c0-1.142,0-2.283,0-3.425
		c0-0.151,0.011-0.298,0.098-0.43c0.157-0.238,0.438-0.338,0.707-0.245c0.097,0.033,0.168,0.098,0.219,0.187
		c0.073,0.129,0.106,0.27,0.121,0.415c0.013,0.123,0.019,0.247,0.019,0.371c0.001,1.039,0.001,2.078,0.001,3.117
		c0,0.038-0.001,0.077,0,0.115c0.011,0.219,0.166,0.374,0.385,0.386c0.11,0.006,0.11,0.006,0.145,0.113
		c0.208,0.652,0.5,1.261,0.914,1.809c0.036,0.047,0.073,0.094,0.11,0.141c0.041-0.03,0.057-0.07,0.078-0.105
		c0.705-1.166,1.418-2.327,2.113-3.499c0.499-0.841,0.971-1.698,1.468-2.54c0.248-0.419,0.496-0.838,0.759-1.248
		c0.053-0.083,0.106-0.166,0.134-0.261c0.126-0.226,0.123-0.475-0.017-0.646c-0.095-0.117-0.229-0.176-0.373-0.205
		c-0.162-0.033-0.326-0.057-0.489-0.08c-0.13-0.018-0.256-0.067-0.39-0.048c-0.127-0.054-0.266-0.048-0.398-0.08
		c-0.012-0.003-0.025-0.005-0.037-0.007c-0.023-0.035,0.005-0.057,0.02-0.08c0.326-0.501,0.653-1.001,0.977-1.503
		c0.035-0.054,0.075-0.071,0.136-0.074c0.542-0.027,1.084-0.054,1.625-0.084c0.84-0.047,1.68-0.096,2.52-0.143
		c0.542-0.03,1.083-0.057,1.625-0.086c0.089-0.005,0.178-0.011,0.288-0.017c-0.146,0.25-0.285,0.488-0.424,0.725
		c-0.143,0.173-0.371,0.583-0.37,0.682c0.229-0.123,0.452-0.243,0.675-0.363c0.343-0.153,0.686-0.304,1.043-0.421
		c0.676-0.221,1.367-0.336,2.08-0.293c0.329,0.02,0.653,0.074,0.965,0.186C42.139,5.891,42.6,6.413,42.8,7.17
		c0.067,0.253,0.101,0.511,0.108,0.772c0.001,0.055,0.009,0.11,0.014,0.165c-0.018,0.036-0.017,0.075-0.014,0.113
		c0.009,0.15-0.017,0.299-0.031,0.446c-0.034,0.352-0.099,0.7-0.187,1.043c-0.177,0.692-0.414,1.363-0.72,2.009
		s-0.669,1.259-1.083,1.842c-0.427,0.6-0.904,1.157-1.417,1.683c-0.283,0.29-0.586,0.56-0.893,0.826
		c-0.361,0.314-0.738,0.608-1.131,0.881c-0.681,0.474-1.391,0.898-2.146,1.246c-0.711,0.328-1.442,0.593-2.206,0.771
		c-0.534,0.124-1.076,0.171-1.621,0.191c-0.17,0.006-0.341-0.004-0.511-0.014c-0.242-0.015-0.485-0.023-0.726-0.057
		c-0.335-0.047-0.665-0.102-0.963-0.276c-0.076-0.045-0.084-0.04-0.128,0.04c-0.245,0.445-0.49,0.89-0.735,1.335
		c-0.149,0.269-0.3,0.537-0.449,0.805c-0.091,0.164-0.179,0.33-0.271,0.494c-0.027,0.048-0.014,0.074,0.034,0.083
		c0.117,0.022,0.228,0.069,0.348,0.076c0.208,0.066,0.424,0.096,0.638,0.131c0.604,0.1,1.212,0.147,1.824,0.149
		c0.517,0.002,1.033-0.031,1.547-0.088c1.043-0.117,2.06-0.347,3.056-0.675c2.15-0.709,4.121-1.753,5.863-3.203
		c1.518-1.263,2.704-2.794,3.584-4.563c0.023-0.045,0.037-0.095,0.073-0.134c0.039-0.003,0.061,0.027,0.088,0.044
		c0.462,0.301,0.969,0.479,1.515,0.548c0.354,0.045,0.707,0.046,1.06,0C47.366,13.849,47.409,13.848,47.451,13.845z M39.622,8.567
		c0.015-0.01,0.026-0.023,0.026-0.041c0.001-0.124,0.013-0.249-0.002-0.371c-0.03-0.245-0.142-0.444-0.389-0.525
		c-0.387-0.127-0.783-0.153-1.185-0.072c-0.446,0.09-0.851,0.274-1.229,0.521c-0.542,0.355-1.017,0.788-1.455,1.265
		c-0.3,0.327-0.584,0.668-0.855,1.019c-0.506,0.656-0.965,1.345-1.399,2.051c-0.232,0.378-0.447,0.767-0.68,1.145
		c-0.617,0.998-1.244,1.99-1.866,2.985c-0.027,0.044-0.056,0.087-0.067,0.137c-0.022,0.095,0.01,0.145,0.103,0.173
		c0.092,0.027,0.185,0.029,0.279,0.02c0.347,0.029,0.692,0,1.035-0.052c0.796-0.12,1.55-0.373,2.265-0.74
		c1.31-0.673,2.363-1.637,3.19-2.847c0.603-0.882,1.133-1.81,1.598-2.773c0.23-0.477,0.438-0.964,0.57-1.479
		C39.594,8.846,39.643,8.712,39.622,8.567z"/>
	<path opacity="0.8" fill="#F1F1F1" enable-background="new    " d="M24.281,8.055c0.051-0.025,0.068-0.06,0.092-0.087
		c0.386-0.44,0.869-0.692,1.454-0.741c0.544-0.045,1.043,0.075,1.471,0.428c0.331,0.273,0.528,0.632,0.652,1.036
		c0.115,0.375,0.156,0.76,0.156,1.151c0,1.133,0,2.266,0,3.398c0,0.021-0.001,0.043,0,0.064c0.001,0.036-0.013,0.056-0.052,0.055
		c-0.026-0.001-0.051,0-0.077,0c-0.539,0-1.077,0-1.616,0c-0.026,0-0.051-0.001-0.077,0c-0.039,0.001-0.052-0.02-0.051-0.056
		c0.001-0.034,0-0.068,0-0.103c0-1.039,0-2.078,0-3.116c0-0.219-0.016-0.435-0.075-0.647c-0.013-0.045-0.027-0.09-0.044-0.133
		c-0.152-0.391-0.457-0.58-0.876-0.571c-0.555,0.012-0.957,0.506-0.955,0.98c0.003,0.748,0,1.496-0.001,2.244
		c0,0.436,0,0.872,0,1.308c0,0.091-0.002,0.093-0.091,0.093c-0.564,0.001-1.129,0.001-1.693,0c-0.089,0-0.089-0.002-0.089-0.12
		c0-0.966,0-1.932,0-2.898c0-1.847,0-3.693,0-5.54c0-0.026,0.003-0.052-0.001-0.077c-0.009-0.069,0.022-0.085,0.087-0.085
		c0.569,0.002,1.137,0.002,1.706,0c0.059,0,0.09,0.013,0.082,0.078c-0.004,0.029-0.001,0.06-0.001,0.09
		C24.281,5.885,24.281,6.962,24.281,8.055z"/>
	<path opacity="0.8" fill="#F1F1F1" enable-background="new    " d="M43.691,10.406c0.004-0.482,0.071-0.927,0.242-1.353
		C44.22,8.337,44.71,7.812,45.42,7.51c0.857-0.364,1.74-0.408,2.621-0.104c1.012,0.35,1.612,1.082,1.843,2.117
		c0.139,0.624,0.112,1.249-0.072,1.862c-0.283,0.941-0.894,1.578-1.819,1.903c-0.845,0.296-1.694,0.288-2.525-0.052
		c-0.907-0.371-1.455-1.058-1.685-2.005C43.715,10.952,43.692,10.667,43.691,10.406z M48.031,10.336
		c-0.006-0.215-0.02-0.441-0.071-0.662c-0.065-0.281-0.167-0.545-0.354-0.772c-0.383-0.467-1.096-0.445-1.475-0.078
		c-0.163,0.158-0.276,0.347-0.349,0.56c-0.187,0.539-0.201,1.088-0.084,1.642c0.061,0.288,0.173,0.553,0.37,0.777
		c0.384,0.438,1.104,0.473,1.508,0.018c0.109-0.123,0.194-0.259,0.259-0.409C47.983,11.072,48.024,10.713,48.031,10.336z"/>
	<path opacity="0.8" fill="#F1F1F1" enable-background="new    " d="M11.963,12.765c-0.057,0.008-0.072,0.043-0.094,0.067
		c-0.351,0.375-0.79,0.569-1.293,0.636c-0.378,0.05-0.749,0.028-1.11-0.103c-0.717-0.261-1.188-0.927-1.193-1.689
		c-0.006-0.895,0.422-1.514,1.211-1.901c0.355-0.174,0.732-0.273,1.121-0.338c0.359-0.06,0.721-0.079,1.084-0.085
		c0.102-0.002,0.104-0.003,0.1-0.108c-0.01-0.27-0.131-0.473-0.371-0.6c-0.21-0.11-0.437-0.138-0.67-0.139
		C10.165,8.502,9.617,8.64,9.107,8.924c-0.015,0.008-0.03,0.015-0.045,0.022C9.033,8.934,9.031,8.905,9.025,8.883
		c-0.1-0.349-0.198-0.697-0.297-1.046C8.702,7.746,8.703,7.744,8.787,7.701c0.379-0.192,0.782-0.311,1.198-0.39
		c0.357-0.068,0.719-0.099,1.082-0.096c0.389,0.003,0.775,0.046,1.145,0.177c0.706,0.25,1.147,0.744,1.346,1.462
		c0.083,0.299,0.116,0.604,0.116,0.912c0.002,0.658-0.002,1.317,0.001,1.975c0.002,0.414,0.001,0.829,0.038,1.243
		c0.011,0.119,0.027,0.237,0.041,0.357c-0.021,0.03-0.053,0.019-0.08,0.019c-0.5,0.001-1,0.001-1.501,0
		c-0.1,0-0.102-0.001-0.121-0.101C12.022,13.096,11.994,12.933,11.963,12.765z M11.847,10.96c0.001,0,0.003,0,0.004,0
		c0-0.111,0.001-0.222,0-0.334c-0.001-0.108-0.002-0.111-0.105-0.106c-0.2,0.009-0.402,0.014-0.6,0.048
		c-0.219,0.037-0.434,0.091-0.628,0.207c-0.294,0.176-0.422,0.438-0.394,0.776c0.026,0.316,0.217,0.536,0.522,0.6
		c0.169,0.035,0.341,0.029,0.506-0.024c0.401-0.127,0.698-0.483,0.694-0.872C11.846,11.156,11.847,11.058,11.847,10.96z"/>
	<path opacity="0.8" fill="#F1F1F1" enable-background="new    " d="M56.913,5.723c0.029,0.051,0.018,0.095,0.018,0.137
		c0.001,0.449,0.001,0.898,0.001,1.347c0,0.034,0,0.068,0.001,0.103c0.001,0.03,0.018,0.046,0.048,0.046s0.06,0,0.09,0
		c0.363,0,0.727,0,1.09,0c0.107,0,0.109,0.001,0.109,0.101c0.001,0.393,0.001,0.787,0,1.18c0,0.096-0.002,0.098-0.101,0.098
		c-0.38,0.001-0.761,0-1.141,0.001c-0.093,0-0.096,0.002-0.096,0.088c0.001,0.744,0.002,1.488,0.005,2.231
		c0.001,0.137,0.017,0.272,0.052,0.406c0.087,0.333,0.28,0.471,0.616,0.49c0.18,0.01,0.358-0.003,0.536-0.035
		c0.075-0.014,0.08-0.012,0.081,0.066c0.003,0.423,0.003,0.846,0.008,1.27c0.001,0.059-0.024,0.08-0.076,0.097
		c-0.183,0.061-0.372,0.091-0.563,0.114c-0.225,0.027-0.452,0.039-0.678,0.028c-0.414-0.019-0.798-0.129-1.135-0.379
		c-0.318-0.236-0.484-0.568-0.577-0.941c-0.075-0.3-0.105-0.605-0.105-0.914c0-0.787,0-1.573,0-2.36c0-0.021,0-0.043,0-0.064
		c-0.002-0.096-0.002-0.097-0.098-0.097c-0.197-0.001-0.393,0-0.59,0c-0.107,0-0.109-0.001-0.109-0.102
		c-0.001-0.398,0.001-0.795-0.002-1.193c0-0.067,0.018-0.088,0.085-0.087c0.205,0.004,0.41,0.002,0.616,0.001
		c0.096,0,0.097-0.002,0.097-0.099c0.001-0.312,0.002-0.624-0.001-0.936c-0.001-0.072,0.018-0.101,0.092-0.121
		C55.761,6.044,56.334,5.883,56.913,5.723z"/>
	<path opacity="0.8" fill="#F1F1F1" enable-background="new    " d="M20.764,5.733c0,0.046,0,0.092,0,0.139c0,0.457,0,0.915,0,1.372
		c0,0.127,0.004,0.111,0.111,0.111c0.368,0,0.735,0,1.103,0c0.131,0,0.121-0.007,0.121,0.115c0,0.385,0,0.769,0,1.154
		c0,0.11-0.001,0.111-0.113,0.111c-0.376,0.001-0.752,0-1.128,0c-0.09,0-0.092,0.002-0.092,0.089c0,0.756,0.001,1.513,0.003,2.269
		c0,0.12,0.02,0.238,0.048,0.354c0.081,0.336,0.28,0.488,0.632,0.503c0.197,0.008,0.392-0.008,0.583-0.047
		c0.03,0.032,0.018,0.068,0.018,0.1c0.004,0.41,0.005,0.82,0.011,1.231c0.001,0.068-0.022,0.098-0.085,0.117
		c-0.18,0.054-0.365,0.088-0.551,0.11c-0.234,0.027-0.469,0.039-0.704,0.028c-0.332-0.016-0.648-0.098-0.939-0.262
		c-0.424-0.239-0.646-0.619-0.757-1.077c-0.078-0.326-0.102-0.658-0.102-0.992c-0.001-0.761,0-1.522,0-2.282
		c0-0.042,0-0.084,0-0.141c-0.104,0-0.2,0-0.297,0c-0.141,0-0.282-0.001-0.423,0.001c-0.052,0.001-0.077-0.014-0.076-0.072
		c0.002-0.415,0.002-0.829,0-1.244c0-0.053,0.02-0.066,0.067-0.065c0.197,0.001,0.393,0.002,0.59,0
		c0.155-0.001,0.139,0.023,0.139-0.133c0.001-0.295,0-0.59,0-0.885c0-0.111,0-0.112,0.111-0.142
		c0.537-0.149,1.074-0.298,1.611-0.445C20.68,5.74,20.716,5.721,20.764,5.733z"/>
	<path opacity="0.8" fill="#F1F1F1" enable-background="new    " d="M17.812,9.006c-0.105-0.015-0.205-0.03-0.306-0.043
		c-0.268-0.034-0.53-0.004-0.779,0.099c-0.415,0.172-0.641,0.495-0.703,0.934c-0.019,0.135-0.025,0.272-0.025,0.409
		C16,11.333,16,12.26,16,13.188c0,0.026,0,0.051,0,0.077c-0.002,0.092-0.002,0.092-0.09,0.094c-0.017,0-0.034,0-0.051,0
		c-0.53,0-1.06,0-1.59,0c-0.158,0-0.141,0.015-0.141-0.147c0-1.381-0.001-2.762,0-4.143c0-0.543-0.017-1.085-0.041-1.628
		c-0.004-0.085-0.004-0.088,0.076-0.088c0.483-0.001,0.966,0.001,1.449-0.002c0.068,0,0.089,0.022,0.092,0.086
		c0.01,0.231,0.024,0.461,0.035,0.691c0.005,0.106,0.009,0.213,0.027,0.32c0.062-0.008,0.056-0.063,0.07-0.097
		c0.161-0.387,0.413-0.696,0.775-0.91c0.356-0.21,0.742-0.266,1.147-0.213c0.043,0.006,0.062,0.022,0.059,0.064
		c-0.001,0.013,0,0.026,0,0.038c0,0.534,0,1.069,0,1.603C17.817,8.958,17.814,8.979,17.812,9.006z"/>
	<path opacity="0.8" fill="#F1F1F1" enable-background="new    " d="M51.944,8.463c0.054-0.042,0.057-0.088,0.074-0.125
		c0.232-0.53,0.609-0.899,1.172-1.063c0.246-0.072,0.496-0.075,0.749-0.043c0.035,0.004,0.055,0.018,0.055,0.055
		c0,0.03,0,0.06,0,0.09c0,0.5,0,1.001-0.001,1.501c0,0.042,0.01,0.085-0.012,0.128c-0.101-0.014-0.202-0.03-0.303-0.043
		c-0.264-0.033-0.522-0.004-0.767,0.096C52.49,9.23,52.261,9.555,52.198,10c-0.02,0.14-0.023,0.281-0.023,0.422
		c0.001,0.932,0.001,1.864,0.001,2.796c0,0.165,0.014,0.142-0.145,0.142c-0.526,0.001-1.052,0-1.578,0c-0.03,0-0.06-0.001-0.09,0
		c-0.043,0.002-0.063-0.017-0.061-0.061c0.001-0.034,0-0.068,0-0.103c0-1.317-0.001-2.634,0-3.951c0-0.603-0.012-1.205-0.044-1.807
		c-0.004-0.081-0.004-0.084,0.083-0.084c0.483-0.001,0.966,0.001,1.449-0.002c0.061,0,0.083,0.017,0.085,0.078
		c0.011,0.248,0.026,0.495,0.039,0.743C51.921,8.267,51.922,8.36,51.944,8.463z"/>
	<path opacity="0.8" fill="#F1F1F1" enable-background="new    " d="M27.284,7.154c0.003-0.05,0.035-0.086,0.06-0.125
		c0.337-0.536,0.713-1.043,1.123-1.524c0.288-0.338,0.59-0.665,0.915-0.968c0.579-0.539,1.196-1.032,1.863-1.457
		c0.621-0.396,1.271-0.734,1.952-1.015c0.625-0.258,1.265-0.462,1.924-0.612c0.382-0.087,0.767-0.156,1.156-0.202
		c0.339-0.04,0.678-0.066,1.019-0.082c0.205-0.01,0.41-0.026,0.614-0.011c0.314,0.022,0.629,0.029,0.943,0.065
		c0.449,0.052,0.893,0.128,1.331,0.238c0.665,0.167,1.303,0.407,1.907,0.733c0.671,0.363,1.267,0.825,1.774,1.395
		c0.39,0.438,0.724,0.917,0.997,1.438c0.301,0.574,0.524,1.176,0.67,1.807c0.014,0.062,0.026,0.125,0.039,0.187
		c-0.096,0.037-0.096,0.037-0.127-0.058c-0.297-0.93-0.755-1.771-1.384-2.52c-0.728-0.866-1.632-1.483-2.675-1.906
		C40.739,2.275,40.069,2.1,39.38,1.991c-0.686-0.108-1.377-0.15-2.069-0.116c-2.574,0.127-4.877,0.995-6.915,2.567
		C29.349,5.25,28.46,6.21,27.709,7.297c-0.024,0.035-0.049,0.07-0.084,0.119C27.518,7.318,27.4,7.237,27.284,7.154z"/>
	<path opacity="0.8" fill="#F1F1F1" enable-background="new    " d="M28.075,21.646c-0.12-0.007-0.232-0.054-0.348-0.076
		c-0.048-0.009-0.061-0.035-0.034-0.083c0.092-0.164,0.18-0.33,0.271-0.494c0.149-0.269,0.301-0.536,0.449-0.805
		c0.246-0.445,0.49-0.89,0.735-1.335c0.044-0.08,0.052-0.085,0.128-0.04c0.298,0.174,0.629,0.229,0.963,0.276
		c0.241,0.034,0.483,0.042,0.726,0.057c0.171,0.01,0.341,0.02,0.511,0.014c0.545-0.02,1.086-0.067,1.621-0.191
		c0.764-0.178,1.495-0.443,2.206-0.771c0.755-0.348,1.465-0.772,2.146-1.246c0.392-0.273,0.769-0.567,1.131-0.881
		c0.306-0.266,0.609-0.536,0.893-0.826c0.513-0.526,0.99-1.083,1.417-1.683c0.415-0.583,0.777-1.196,1.083-1.842
		s0.543-1.317,0.72-2.009c0.088-0.343,0.152-0.691,0.187-1.043c0.014-0.148,0.04-0.296,0.031-0.446
		c-0.002-0.038-0.004-0.077,0.014-0.113c0.072,0.359,0.079,0.722,0.047,1.085c-0.114,1.29-0.535,2.488-1.123,3.631
		c-0.583,1.133-1.341,2.141-2.23,3.05c-1.156,1.183-2.47,2.151-3.951,2.891c-0.814,0.407-1.661,0.725-2.551,0.923
		c-0.625,0.139-1.257,0.183-1.895,0.171c-0.355-0.006-0.708-0.026-1.059-0.083c-0.282-0.046-0.562-0.103-0.812-0.253
		c-0.075-0.045-0.082-0.042-0.133,0.05c-0.203,0.366-0.405,0.732-0.607,1.098C28.433,20.995,28.254,21.321,28.075,21.646z"/>
	<path opacity="0.8" fill="#F1F1F1" enable-background="new    " d="M21.591,20.132c0.073,0.019,0.122,0.076,0.175,0.123
		c0.567,0.496,1.168,0.948,1.794,1.367c0.018,0.012,0.035,0.024,0.053,0.035c0.166,0.108,0.168,0.109,0.057,0.28
		c-0.062,0.096-0.105,0.205-0.193,0.282c-0.331-0.21-0.642-0.447-0.951-0.687c-0.39-0.303-0.765-0.625-1.129-0.96
		c-0.073-0.067-0.073-0.069-0.015-0.151C21.452,20.324,21.522,20.228,21.591,20.132z"/>
	<path opacity="0.8" fill="#F1F1F1" enable-background="new    " d="M24.203,13.757c0.16,0.728,0.408,1.425,0.757,2.084
		c0.262,0.495,0.572,0.958,0.95,1.375c0.106,0.117,0.215,0.231,0.327,0.342c0.051,0.05,0.065,0.094,0.021,0.155
		c-0.069,0.096-0.11,0.211-0.201,0.292c-0.352-0.364-0.642-0.775-0.894-1.213c-0.475-0.824-0.784-1.709-0.957-2.643
		c-0.021-0.113-0.034-0.228-0.061-0.34C24.125,13.738,24.161,13.751,24.203,13.757z"/>
	<path opacity="0.8" fill="#F1F1F1" enable-background="new    " d="M30.676,7.183c0.134-0.019,0.26,0.029,0.39,0.048
		c0.164,0.023,0.327,0.047,0.489,0.08c0.144,0.029,0.277,0.089,0.373,0.205c0.14,0.171,0.144,0.42,0.017,0.646
		c-0.161-0.125-0.354-0.156-0.547-0.186c-0.335-0.053-0.671-0.107-1.006-0.162c-0.033-0.005-0.064-0.017-0.105-0.028
		C30.419,7.582,30.547,7.383,30.676,7.183z"/>
	<path opacity="0.8" fill="#F1F1F1" enable-background="new    " d="M59.049,5.1c-0.087,0.021-0.168,0.008-0.248,0.01
		c-0.161,0.004-0.146-0.021-0.146,0.141c-0.001,0.265,0,0.529,0,0.794c0,0.112-0.001,0.113-0.109,0.114
		c-0.073,0.001-0.145,0-0.218,0c-0.119,0-0.107,0.007-0.107-0.113c0-0.252,0-0.503,0-0.755c0-0.179,0-0.179-0.186-0.179
		c-0.047,0-0.094-0.002-0.141,0.001c-0.048,0.002-0.072-0.014-0.068-0.066c0.007-0.089-0.035-0.198,0.017-0.261
		c0.05-0.06,0.161-0.019,0.244-0.02c0.29-0.003,0.58-0.002,0.87-0.001c0.088,0,0.089,0.002,0.09,0.091
		C59.05,4.936,59.049,5.017,59.049,5.1z"/>
	<path opacity="0.8" fill="#F1F1F1" enable-background="new    " d="M37.314,6.152c-0.223,0.12-0.446,0.24-0.675,0.363
		c-0.001-0.099,0.227-0.51,0.37-0.682c0.16-0.007,0.319-0.014,0.493-0.022C37.446,5.94,37.359,6.035,37.314,6.152z"/>
	<path fill="#F1F1F1" d="M2.425,9.92c0.003,0.007,0.003,0.013-0.002,0.019c-0.002-0.005-0.004-0.01-0.006-0.015
		C2.418,9.923,2.423,9.921,2.425,9.92z"/>
	<path opacity="0.8" fill="#F1F1F1" enable-background="new    " d="M39.622,8.567c-0.144-0.217-0.374-0.268-0.607-0.309
		c-0.581-0.103-1.127,0.016-1.649,0.273c-0.511,0.251-0.956,0.595-1.37,0.981c-0.694,0.647-1.282,1.385-1.831,2.155
		c-0.411,0.578-0.799,1.171-1.156,1.783c-0.484,0.83-0.999,1.64-1.506,2.455c-0.2,0.323-0.401,0.645-0.602,0.967
		c-0.094,0.009-0.187,0.008-0.279-0.02s-0.124-0.078-0.103-0.173c0.012-0.051,0.04-0.094,0.067-0.137
		c0.623-0.995,1.25-1.987,1.866-2.985c0.233-0.377,0.447-0.767,0.68-1.145c0.434-0.706,0.893-1.394,1.399-2.051
		c0.271-0.351,0.555-0.692,0.855-1.019c0.438-0.477,0.913-0.91,1.455-1.265c0.378-0.248,0.783-0.432,1.229-0.521
		c0.402-0.081,0.798-0.055,1.185,0.072c0.247,0.081,0.359,0.28,0.389,0.525c0.015,0.122,0.003,0.247,0.002,0.371
		C39.648,8.544,39.637,8.557,39.622,8.567z"/>
	<path fill="#F1F1F1" d="M47.633,10.33c0.001,0.31-0.033,0.584-0.13,0.848c-0.05,0.138-0.121,0.262-0.217,0.374
		c-0.234,0.275-0.667,0.244-0.884,0.029c-0.138-0.136-0.226-0.302-0.277-0.483c-0.148-0.518-0.145-1.036,0.018-1.551
		c0.039-0.123,0.099-0.235,0.174-0.34c0.232-0.33,0.791-0.373,1.046,0.025c0.132,0.206,0.2,0.433,0.239,0.67
		C47.625,10.053,47.638,10.207,47.633,10.33z"/>
</g>
<g opacity="0.6">
	<path fill="#F1F1F1" d="M32.146,341.025c0,11.052,0,22.103,0,33.155c-0.07,0.273-0.164,0.534-0.329,0.767
		c-0.393,0.553-0.911,0.917-1.581,1.051c-8.689,0-17.379,0-26.068,0c-0.037-0.053-0.099-0.045-0.15-0.058
		c-0.85-0.203-1.648-1.043-1.646-2.094c0.015-10.828,0.01-21.657,0.007-32.485c0-0.536,0.158-1.011,0.477-1.431
		c0.41-0.539,0.932-0.905,1.635-0.905c8.527-0.004,17.055-0.003,25.583-0.004c0.161,0,0.318,0.022,0.469,0.074
		c0.678,0.234,1.121,0.715,1.418,1.35C32.048,340.631,32.087,340.831,32.146,341.025z M29.809,354.667
		c0.001-6.931-5.6-12.558-12.513-12.563c-6.988-0.005-12.49,5.61-12.581,12.374c-0.094,6.946,5.451,12.642,12.377,12.73
		C24.203,367.298,29.823,361.546,29.809,354.667z M23.179,373.67c1.091,0.002,2.119-0.888,2.275-1.969
		c0.169-1.168-0.683-2.102-1.837-2.014c-0.965,0.074-1.831,0.786-2.09,1.719C21.196,372.605,21.971,373.668,23.179,373.67z
		 M15.256,373.67c1.095,0.003,2.128-0.896,2.279-1.983c0.162-1.16-0.692-2.089-1.837-2c-1.016,0.079-1.89,0.836-2.121,1.836
		C13.314,372.666,14.097,373.668,15.256,373.67z M10.967,373.692c0.625,0.004,1.1-0.097,1.483-0.456
		c0.29-0.272,0.467-0.61,0.423-1.014c-0.044-0.408-0.458-0.779-0.892-0.844c-0.167-0.025-0.336-0.043-0.504-0.065
		c-0.29-0.039-0.58-0.072-0.868-0.123c-0.331-0.058-0.42-0.33-0.201-0.589c0.103-0.122,0.239-0.198,0.39-0.235
		c0.588-0.142,1.161-0.143,1.679,0.229c0.065,0.046,0.113,0.047,0.177,0.004c0.129-0.084,0.261-0.163,0.395-0.239
		c0.062-0.035,0.066-0.066,0.018-0.116c-0.099-0.106-0.208-0.202-0.341-0.26c-0.801-0.347-1.607-0.384-2.413-0.02
		c-0.237,0.107-0.437,0.268-0.585,0.487c-0.359,0.529-0.156,1.159,0.442,1.373c0.053,0.019,0.108,0.033,0.162,0.047
		c0.274,0.074,0.557,0.085,0.836,0.121c0.218,0.028,0.442,0.027,0.653,0.095c0.203,0.065,0.301,0.193,0.287,0.367
		c-0.02,0.255-0.147,0.432-0.39,0.52c-0.126,0.046-0.258,0.069-0.391,0.08c-0.627,0.053-1.178-0.109-1.613-0.583
		c-0.051-0.055-0.082-0.057-0.139-0.021c-0.14,0.086-0.281,0.169-0.426,0.247c-0.074,0.04-0.076,0.077-0.031,0.142
		c0.088,0.127,0.185,0.246,0.306,0.344C9.911,373.577,10.484,373.68,10.967,373.692z M19.374,373.516
		c0.447,0,0.893-0.004,1.34,0.003c0.116,0.002,0.163-0.036,0.18-0.147c0.018-0.121,0.039-0.244,0.079-0.36
		c0.051-0.148-0.005-0.168-0.138-0.166c-0.606,0.006-1.211,0-1.817,0.005c-0.125,0.001-0.168-0.012-0.134-0.159
		c0.206-0.894,0.399-1.79,0.601-2.685c0.024-0.106,0.014-0.145-0.106-0.139c-0.189,0.009-0.38,0.006-0.57,0.001
		c-0.082-0.002-0.114,0.026-0.132,0.108c-0.251,1.136-0.505,2.271-0.761,3.405c-0.026,0.116,0.012,0.137,0.119,0.135
		C18.481,373.513,18.927,373.516,19.374,373.516z"/>
	<path fill="#F1F1F1" d="M17.259,366.322c-6.457,0-11.661-5.229-11.66-11.714c0.002-6.394,5.25-11.62,11.666-11.616
		c6.459,0.004,11.665,5.234,11.66,11.715C28.921,361.106,23.683,366.322,17.259,366.322z M13.094,353.793
		c0.001,1.251,0.335,2.405,0.993,3.468c0.049,0.079,0.078,0.113,0.172,0.05c0.564-0.374,1.132-0.743,1.703-1.107
		c0.102-0.065,0.095-0.108,0.039-0.201c-0.565-0.941-0.739-1.949-0.527-3.03c0.424-2.164,2.647-3.711,4.833-3.344
		c1.173,0.197,2.114,0.778,2.802,1.754c0.058,0.082,0.094,0.106,0.189,0.043c0.576-0.383,1.157-0.76,1.738-1.136
		c0.088-0.057,0.098-0.093,0.034-0.188c-1.5-2.219-4.236-3.301-6.854-2.705C15.204,348.082,13.086,350.727,13.094,353.793z
		 M21.87,356.598c0-1.241-0.331-2.388-0.976-3.448c-0.063-0.103-0.105-0.113-0.208-0.045c-0.559,0.373-1.122,0.74-1.689,1.101
		c-0.104,0.066-0.12,0.105-0.055,0.22c0.802,1.401,0.818,2.823,0.047,4.236c-0.869,1.591-2.686,2.443-4.468,2.118
		c-1.135-0.207-2.03-0.798-2.696-1.736c-0.064-0.09-0.099-0.109-0.198-0.042c-0.559,0.373-1.123,0.739-1.689,1.101
		c-0.1,0.064-0.102,0.107-0.038,0.199c0.241,0.347,0.503,0.677,0.808,0.968c1.589,1.515,3.479,2.132,5.647,1.807
		C19.525,362.602,21.872,359.823,21.87,356.598z"/>
	<path fill="#F1F1F1" d="M23.641,370.389c0.699-0.003,1.185,0.544,1.113,1.251c-0.079,0.777-0.858,1.409-1.621,1.315
		c-0.603-0.074-1.011-0.569-0.97-1.179C22.214,371.036,22.9,370.392,23.641,370.389z"/>
	<path fill="#F1F1F1" d="M14.243,371.853c0.001-0.814,0.794-1.537,1.602-1.459c0.621,0.06,1.042,0.57,0.992,1.202
		c-0.064,0.803-0.846,1.457-1.626,1.36C14.631,372.883,14.242,372.439,14.243,371.853z"/>
</g>
</svg>
