<svg xmlns="http://www.w3.org/2000/svg" viewBox="0 0 81.35 408.5"><defs><style>.a{fill:#b3b3b3;}.b{fill:#2fec52;}.c{fill:#ccc;}.d{fill:#999;}.e{fill:#23b13e;}</style></defs><title>Marker_Middel 4</title><path class="a" d="M6.18,130.14V81.78l39.15-7.47,29.84,7.47v48.36Zm0,0"/><path class="b" d="M29.87,42V12L51.49,0V42Zm0,0"/><path class="c" d="M75.17,81.78h-69c9.67,0,17.5-11.41,17.5-25.49V36.79h34v19.5a32.11,32.11,0,0,0,5.13,18c3.17,4.61,7.54,7.47,12.38,7.47Zm0,0"/><path class="a" d="M45.33,74.31a133.22,133.22,0,0,1-1.08-18V36.79H57.67V56.29a32.13,32.13,0,0,0,5.13,18c3.17,4.61,7.54,7.47,12.38,7.47H47.94c-1,0-1.94-2.85-2.61-7.47Zm0,0"/><rect class="d" x="54.59" y="81.78" width="20.59" height="31.49"/><path class="b" d="M0,383.48V113.27H81.35V383.48c0,13.81-6.24,25-13.93,25H13.93c-7.7,0-13.93-11.21-13.93-25Zm0,0"/><path class="e" d="M51.38,408.5h16c7.69,0,13.93-11.21,13.93-25V113.27h-16V383.48c0,13.81-6.24,25-13.93,25Zm0,0"/></svg>