<svg xmlns="http://www.w3.org/2000/svg" viewBox="0 0 81.35 381.21"><defs><style>.a{fill:#b3b3b3;}.b{fill:#28bdff;}.c{fill:#ccc;}.d{fill:#999;}.e{fill:#1e8ebf;}</style></defs><title>Marker_Middel 1</title><path class="a" d="M6.18,129.06v-48l39.15-7.41L75.17,81.1v48Zm0,0"/><path class="b" d="M29.87,41.64V11.89L51.49,0V41.64Zm0,0"/><path class="c" d="M75.17,81.1h-69c9.67,0,17.5-11.32,17.5-25.28V36.49h34V55.82A31.65,31.65,0,0,0,62.8,73.69C66,78.27,70.34,81.1,75.17,81.1Zm0,0"/><path class="a" d="M45.33,73.69a131,131,0,0,1-1.08-17.87V36.49H57.67V55.82A31.67,31.67,0,0,0,62.8,73.69C66,78.27,70.34,81.1,75.18,81.1H47.94c-1,0-1.94-2.83-2.61-7.41Zm0,0"/><rect class="d" x="54.59" y="81.1" width="20.59" height="31.23"/><path class="b" d="M0,358.5V113.34H81.35V358.5c0,12.53-6.24,22.7-13.93,22.7H13.93C6.23,381.21,0,371,0,358.5Zm0,0"/><path class="e" d="M51.38,381.21h16c7.69,0,13.93-10.17,13.93-22.7V113.34h-16V358.5c0,12.53-6.24,22.7-13.93,22.7Zm0,0"/></svg>