<svg xmlns="http://www.w3.org/2000/svg" viewBox="0 0 81.35 369"><defs><style>.a{fill:#b3b3b3;}.b{fill:#8b00ad;}.c{fill:#ccc;}.d{fill:#999;}.e{fill:#733b80;}</style></defs><title>Marker_Middel 8</title><path class="a" d="M6.18,111.68V70.18l39.15-6.41,29.84,6.41v41.5Zm0,0"/><path class="b" d="M29.87,36V10.29L51.49,0V36Zm0,0"/><path class="c" d="M75.17,70.18h-69c9.67,0,17.5-9.79,17.5-21.87V31.57h34V48.3A24.79,24.79,0,0,0,62.8,63.77a15.92,15.92,0,0,0,12.38,6.41Zm0,0"/><path class="a" d="M45.33,63.77A98.34,98.34,0,0,1,44.26,48.3V31.57H57.67V48.3A24.8,24.8,0,0,0,62.8,63.77a15.92,15.92,0,0,0,12.38,6.41H47.94c-1,0-1.94-2.45-2.61-6.41Zm0,0"/><rect class="d" x="54.59" y="70.18" width="20.59" height="27.02"/><path class="b" d="M0,351.6V163.67H81.35V351.6c0,9.61-6.24,17.4-13.93,17.4H13.93C6.23,369,0,361.21,0,351.6Zm0,0"/><path class="e" d="M51.38,369h16c7.69,0,13.93-7.8,13.93-17.4V163.67h-16V351.6c0,9.61-6.24,17.4-13.93,17.4Zm0,0"/><path class="b" d="M0,284.39V96.46H81.35V284.39c0,9.61-6.24,17.4-13.93,17.4H13.93C6.23,301.79,0,294,0,284.39Zm0,0"/><path class="e" d="M51.38,369h16c7.69,0,13.93-10.35,13.93-23.1V96.46h-16V345.9c0,12.75-6.24,23.1-13.93,23.1Zm0,0"/></svg>