<svg xmlns="http://www.w3.org/2000/svg" viewBox="0 0 81.35 360.21"><defs><style>.a{fill:#b3b3b3;}.b{fill:#e80011;}.c{fill:#ccc;}.d{fill:#999;}.e{fill:#9b101a;}</style></defs><title>Marker_Middel 5</title><path class="a" d="M6.18,162.77V102.28l39.15-9.34,29.84,9.34v60.49Zm0,0"/><path class="b" d="M29.87,52.51V15L51.49,0V52.51Zm0,0"/><path class="c" d="M75.17,102.28h-69c9.67,0,17.5-14.27,17.5-31.88V46h34V70.4c0,8.81,2,16.77,5.13,22.54s7.54,9.34,12.38,9.34Zm0,0"/><path class="a" d="M45.33,92.94A207.88,207.88,0,0,1,44.26,70.4V46H57.67V70.4c0,8.81,2,16.77,5.13,22.54s7.54,9.34,12.38,9.34H47.94c-1,0-1.94-3.57-2.61-9.34Zm0,0"/><rect class="d" x="54.59" y="102.28" width="20.59" height="39.38"/><path class="b" d="M0,341.71V141.85H81.35V341.71c0,10.22-6.24,18.51-13.93,18.51H13.93C6.23,360.21,0,351.92,0,341.71Zm0,0"/><path class="e" d="M51.38,360.21h16c7.69,0,13.93-8.29,13.93-18.51V141.85h-16V341.71c0,10.22-6.24,18.51-13.93,18.51Zm0,0"/></svg>