<svg xmlns="http://www.w3.org/2000/svg" viewBox="0 0 81.35 362.6"><defs><style>.a{fill:#b3b3b3;}.b{fill:#ff12c0;}.c{fill:#ccc;}.d{fill:#999;}.e{fill:#bf0e90;}</style></defs><title>Marker_Middel 6</title><path class="a" d="M6.18,151.2V95l39.15-8.68L75.17,95V151.2Zm0,0"/><path class="b" d="M29.87,48.78V13.93L51.49,0V48.78Zm0,0"/><path class="c" d="M75.17,95h-69c9.67,0,17.5-13.26,17.5-29.61V42.75h34V65.4c0,8.18,2,15.58,5.13,20.94S70.34,95,75.17,95Zm0,0"/><path class="a" d="M45.33,86.34a179.5,179.5,0,0,1-1.08-20.94V42.75H57.67V65.39c0,8.18,2,15.58,5.13,20.94S70.34,95,75.18,95H47.94c-1,0-1.94-3.32-2.61-8.68Zm0,0"/><rect class="d" x="54.59" y="95.01" width="20.59" height="36.58"/><path class="b" d="M0,343.07V132.2H81.35V343.07c0,10.78-6.24,19.53-13.93,19.53H13.93C6.23,362.6,0,353.85,0,343.07Zm0,0"/><path class="e" d="M51.38,362.6h16c7.69,0,13.93-8.75,13.93-19.53V132.2h-16V343.07c0,10.78-6.24,19.53-13.93,19.53Zm0,0"/></svg>