<svg xmlns="http://www.w3.org/2000/svg" viewBox="0 0 81.35 351.59"><defs><style>.a{fill:#b3b3b3;}.b{fill:#000bd1;}.c{fill:#ccc;}.d{fill:#999;}.e{fill:#00089d;}</style></defs><title>Marker_Middel 2</title><path class="a" d="M6.18,107.48V67.54l39.15-6.17,29.84,6.17v39.94Zm0,0"/><path class="b" d="M29.87,34.67V9.91L51.49,0V34.67Zm0,0"/><path class="c" d="M75.17,67.54h-69c9.67,0,17.5-9.42,17.5-21.05V30.39h34v16.1A23.28,23.28,0,0,0,62.8,61.37a16.12,16.12,0,0,0,12.38,6.17Zm0,0"/><path class="a" d="M45.33,61.37a91.16,91.16,0,0,1-1.08-14.89V30.39H57.67v16.1A23.29,23.29,0,0,0,62.8,61.37a16.12,16.12,0,0,0,12.38,6.17H47.94c-1,0-1.94-2.36-2.61-6.17Zm0,0"/><rect class="d" x="54.59" y="67.54" width="20.59" height="26"/><path class="b" d="M0,329.72V93.54H81.35V329.72c0,12.07-6.24,21.87-13.93,21.87H13.93c-7.7,0-13.93-9.8-13.93-21.87Zm0,0"/><path class="e" d="M51.38,351.59h16c7.69,0,13.93-9.8,13.93-21.87V93.54h-16V329.72c0,12.07-6.24,21.87-13.93,21.87Zm0,0"/></svg>