<svg xmlns="http://www.w3.org/2000/svg" viewBox="0 0 81.35 344.2"><defs><style>.a{fill:#b3b3b3;}.b{fill:#f95428;}.c{fill:#ccc;}.d{fill:#999;}.e{fill:#e54728;}</style></defs><title>Marker_Middel 9</title><path class="a" d="M6.18,127.06V79.84l39.15-7.29,29.84,7.29v47.22Zm0,0"/><path class="b" d="M29.87,41V11.71L51.49,0V41Zm0,0"/><path class="c" d="M75.17,79.84h-69c9.67,0,17.5-11.14,17.5-24.88v-19h34V55A30.81,30.81,0,0,0,62.8,72.55c3.17,4.5,7.54,7.29,12.38,7.29Zm0,0"/><path class="a" d="M45.33,72.55A127,127,0,0,1,44.26,55v-19H57.67V55a30.83,30.83,0,0,0,5.13,17.6c3.17,4.5,7.54,7.29,12.38,7.29H47.94c-1,0-1.94-2.79-2.61-7.29Zm0,0"/><rect class="d" x="54.59" y="79.84" width="20.59" height="30.74"/><path class="b" d="M0,324.4V110.59H81.35V324.4c0,10.93-6.24,19.8-13.93,19.8H13.93C6.23,344.2,0,335.33,0,324.4Zm0,0"/><path class="e" d="M51.38,344.2h16c7.69,0,13.93-8.87,13.93-19.8V110.59h-16V324.4c0,10.93-6.24,19.8-13.93,19.8Zm0,0"/></svg>